<svg xmlns="http://www.w3.org/2000/svg" viewBox="0 0 144 32">
  <g fill="none" fill-rule="evenodd">
    <path fill="#FFF" d="M60.58 13.984h-8.979a.413.413 0 0 0-.42.407v4.254c0 .224.189.407.42.407h3.503v5.285s-.786.26-2.96.26c-2.566 0-6.15-.908-6.15-8.544 0-7.638 3.732-8.643 7.235-8.643 3.033 0 4.34.517 5.17.767.262.077.504-.175.504-.4l1.001-4.11a.375.375 0 0 0-.16-.317c-.338-.233-2.397-1.35-7.6-1.35C46.148 2 40 4.471 40 16.35 40 28.23 47.04 30 52.972 30c4.912 0 7.892-2.034 7.892-2.034.123-.066.136-.232.136-.308V14.391a.413.413 0 0 0-.42-.407M106 3.402a.401.401 0 0 0-.403-.402h-4.886a.403.403 0 0 0-.404.402l.001 9.305h-7.616V3.402A.401.401 0 0 0 92.29 3h-4.885a.403.403 0 0 0-.404.402v25.195c0 .222.181.403.404.403h4.885c.224 0 .403-.18.403-.403V17.82h7.616l-.013 10.777c0 .222.18.403.404.403h4.898c.224 0 .402-.18.403-.403V3.402M70 6.5C70 4.563 68.657 3 67 3c-1.656 0-3 1.564-3 3.5 0 1.932 1.344 3.5 3 3.5 1.657 0 3-1.568 3-3.5m0 16.704V11.407a.417.417 0 0 0-.426-.407h-5.128c-.236 0-.446.23-.446.455v16.9c0 .497.326.645.748.645h4.62c.508 0 .632-.236.632-.653v-5.143M123.583 12h-4.971a.406.406 0 0 0-.414.398v12.199s-1.263.877-3.056.877c-1.792 0-2.268-.772-2.268-2.438V12.398a.406.406 0 0 0-.414-.398h-5.046a.407.407 0 0 0-.414.398v11.444c0 4.947 2.906 6.158 6.903 6.158 3.28 0 5.924-1.72 5.924-1.72s.126.907.183 1.014a.44.44 0 0 0 .366.216l3.21-.014a.407.407 0 0 0 .414-.397l-.002-16.701a.407.407 0 0 0-.415-.398m11.247 12.508c-1.764-.049-2.96-.787-2.96-.787v-7.83s1.18-.667 2.628-.786c1.83-.151 3.594.359 3.594 4.387 0 4.247-.796 5.085-3.263 5.016Zm2.004-13.93c-2.887 0-4.85 1.188-4.85 1.188V3.394c0-.218-.19-.394-.423-.394h-5.138c-.233 0-.423.176-.423.394v24.724c0 .219.19.396.424.396h3.564a.43.43 0 0 0 .372-.21c.089-.133.217-1.14.217-1.14s2.1 1.836 6.077 1.836c4.669 0 7.346-2.184 7.346-9.805 0-7.62-4.276-8.617-7.166-8.617Zm-54.28.624h-3.462l-.005-4.922c0-.187-.09-.28-.29-.28h-4.715c-.184 0-.282.087-.282.277v5.087s-2.364.614-2.524.664a.41.41 0 0 0-.276.396v3.197c0 .23.17.415.381.415H73.8v7.69C73.8 29.44 77.52 30 80.032 30c1.148 0 2.52-.397 2.747-.487.137-.054.217-.207.217-.373L83 25.624c0-.23-.18-.415-.383-.415-.202 0-.717.088-1.248.088-1.7 0-2.277-.851-2.277-1.953v-7.308h3.462c.21 0 .381-.185.381-.415v-4.005c0-.229-.17-.414-.381-.414"/>
    <path fill="#FFFFFE" d="M16.288 0C7.294 0 0 7.293 0 16.29c0 7.197 4.667 13.302 11.14 15.456.815.15 1.112-.353 1.112-.785 0-.387-.014-1.411-.022-2.77-4.531.984-5.487-2.184-5.487-2.184-.741-1.882-1.809-2.383-1.809-2.383-1.479-1.01.112-.99.112-.99 1.635.115 2.495 1.679 2.495 1.679 1.453 2.489 3.813 1.77 4.741 1.353.148-1.052.569-1.77 1.034-2.177-3.617-.411-7.42-1.809-7.42-8.051 0-1.778.635-3.233 1.677-4.371-.168-.412-.727-2.069.16-4.311 0 0 1.367-.438 4.479 1.67a15.602 15.602 0 0 1 4.078-.549 15.62 15.62 0 0 1 4.078.549c3.11-2.108 4.475-1.67 4.475-1.67.889 2.242.33 3.899.163 4.311 1.044 1.138 1.674 2.593 1.674 4.371 0 6.258-3.809 7.635-7.437 8.038.584.503 1.105 1.497 1.105 3.016 0 2.178-.02 3.935-.02 4.469 0 .436.294.943 1.12.784 6.468-2.159 11.131-8.26 11.131-15.455C32.579 7.293 25.285 0 16.288 0"/>
  </g>
</svg>
