<svg width="150" height="56" xmlns="http://www.w3.org/2000/svg" viewBox="0 0 354 128"><defs><linearGradient id="a" x1="20.921%" x2="85.684%" y1="62.858%" y2="29.132%"><stop offset="0%" stop-color="#F2CA27"/><stop offset="100%" stop-color="#E67E22"/></linearGradient><linearGradient id="b" x1="21.446%" x2="67.674%" y1="13.996%" y2="97.208%"><stop offset="11%" stop-color="#F4A62A"/><stop offset="47%" stop-color="#EC5E00"/><stop offset="95%" stop-color="#D14233"/></linearGradient><linearGradient id="c" x1="0%" x2="100%" y1="50%" y2="50%"><stop offset="11%" stop-color="#D14233"/><stop offset="44%" stop-color="#EC5E00"/><stop offset="92%" stop-color="#F39C12"/></linearGradient><linearGradient id="d" x1="15.499%" x2="71.677%" y1="72.305%" y2="31.562%"><stop offset="0%" stop-color="#F39C12"/><stop offset="55%" stop-color="#E74C3C"/></linearGradient><linearGradient id="e" x1="0%" x2="99.997%" y1="50.001%" y2="50.001%"><stop offset="2%" stop-color="#E74C3C"/><stop offset="48%" stop-color="#E67E22"/><stop offset="100%" stop-color="#F1C40F"/></linearGradient></defs><g fill="none" fill-rule="nonzero"><g fill="#FFF"><path d="M136.536 51.51c1.629 0 2.765 1.222 2.809 2.905V89.993c0 1.735-1.148 3.007-2.809 3.007-1.63 0-2.8-1.201-2.844-2.904l-.002-.103V54.517c0-1.757 1.183-3.007 2.846-3.007zM136.5 35c.94 0 1.796.388 2.464 1.094A3.74 3.74 0 01140 38.698c0 1.009-.36 1.929-1.036 2.643-.668.706-1.525 1.094-2.464 1.094a3.333 3.333 0 01-2.514-1.127c-.645-.713-.986-1.62-.986-2.61 0-.972.347-1.866.985-2.57A3.334 3.334 0 01136.5 35zm0 3.11a.645.645 0 00-.43.174.676.676 0 00-.163.414c0 .174.076.362.163.454a.644.644 0 00.43.173.663.663 0 00.442-.205.688.688 0 00.151-.422.642.642 0 00-.15-.38.665.665 0 00-.443-.208zM162.52 52c-3.846 0-7.405 1.11-10.62 3.308l-.22.153a20.256 20.256 0 00-2.445 2.018l-.187.183v-2.69c0-1.715-1.228-2.972-3.004-2.972-1.78 0-3.044 1.235-3.044 2.971V90.03c0 1.736 1.265 2.971 3.044 2.971 1.775 0 3.004-1.256 3.004-2.971V72.5c.022-4.07 1.353-7.495 4.018-10.364 2.64-2.82 5.75-4.193 9.453-4.193 3.677 0 6.773 1.373 9.421 4.2 2.684 2.864 4.012 6.282 4.012 10.357V90.03c0 1.715 1.229 2.971 3.005 2.971 1.778 0 3.043-1.235 3.043-2.971V72.5c0-5.59-1.9-10.434-5.67-14.425-3.772-4.022-8.423-6.075-13.81-6.075zM205.52 35c-5.854 0-10.927 2.079-15.103 6.186-4.176 4.107-6.331 9.137-6.417 14.974v33.835c0 1.756 1.252 3.005 3.013 3.005 1.759 0 2.975-1.27 2.975-3.005V56.46c.023-4.281 1.528-7.896 4.565-10.947 3.046-3.015 6.665-4.503 10.967-4.503 4.274 0 7.88 1.488 10.938 4.514 3.051 3.043 4.554 6.65 4.554 10.936 0 4.284-1.5 7.876-4.554 10.898-3.063 3.055-6.667 4.553-10.938 4.553l-.239-.002c-3.169-.043-6.023-.957-8.616-2.757l-.162-.114-1.033-.81-.089-.065c-1.365-.977-3.016-.758-4.059.522l-.025.031.05-.058c-1.153 1.313-1.005 3.05.287 4.174l.35.295c.204.167.412.332.623.492l.28.21 23.937 18.477.034.03a2.85 2.85 0 001.858.664c.945 0 1.812-.406 2.387-1.17l.024-.033.063-.09c.937-1.378.695-3.048-.657-4.08l-12.744-9.853.093-.009c4.894-.495 9.194-2.556 12.823-6.15 4.182-4.17 6.295-9.26 6.295-15.155 0-5.893-2.114-10.983-6.29-15.149-4.203-4.19-9.306-6.311-15.19-6.311zM248.5 52c-5.626 0-10.494 2.022-14.486 6.013C230.02 62.005 228 66.873 228 72.5c0 5.627 2.021 10.496 6.014 14.487C238.005 90.979 242.874 93 248.5 93c5.57 0 10.396-1.979 14.362-5.889l.075-.077.072-.079.048-.055v3.129c0 1.736 1.234 2.971 2.971 2.971S269 91.765 269 90.029V72.5c0-5.626-2.022-10.495-6.014-14.487C258.993 54.022 254.125 52 248.5 52zm0 5.943c4.036 0 7.426 1.406 10.288 4.269l.155.156c2.759 2.83 4.114 6.17 4.114 10.132v10.558l-.072-.078-.075-.078-.077-.075c-1.218-1.146-2.906-1.145-4.093.047l-.025.025.016-.014c-2.864 2.797-6.236 4.172-10.231 4.172-4.037 0-7.426-1.406-10.288-4.268-2.891-2.868-4.307-6.255-4.307-10.289 0-4.033 1.416-7.42 4.3-10.282 2.869-2.869 6.258-4.275 10.295-4.275zM291.5 51c-5.626 0-10.494 2.038-14.486 6.062C273.02 61.085 271 65.993 271 71.665c0 5.673 2.021 10.58 6.014 14.604 3.991 4.024 8.86 6.061 14.486 6.061 5.57 0 10.396-1.994 14.362-5.936l.075-.078.072-.08.048-.055v3.154c0 4.069-1.406 7.486-4.269 10.371-2.868 2.914-6.255 4.341-10.288 4.341-3.942 0-7.26-1.344-10.063-4.078l-.232-.229c-1.213-1.151-2.901-1.15-4.089.053l-.026.027c-1.207 1.216-1.207 2.938-.048 4.183l.058.06c3.967 3.943 8.806 5.937 14.4 5.937 5.625 0 10.494-2.038 14.486-6.062 3.992-4.024 6.014-8.932 6.014-14.603v-17.67c0-5.671-2.022-10.579-6.014-14.603C301.993 53.038 297.125 51 291.5 51zm0 5.99c4.036 0 7.426 1.418 10.288 4.304l.155.158c2.759 2.852 4.114 6.218 4.114 10.213v10.643l-.072-.079a3.57 3.57 0 00-.075-.078l-.077-.076c-1.218-1.155-2.906-1.154-4.093.048l-.03.031.015-.014c-2.864 2.842-6.234 4.238-10.225 4.238-3.96 0-7.297-1.376-10.126-4.178l-.157-.157c-2.896-2.897-4.312-6.312-4.312-10.378s1.416-7.48 4.3-10.365c2.869-2.892 6.258-4.31 10.295-4.31zM334.566 52c-5.641 0-10.523 2.008-14.528 5.975-4.01 4.002-6.038 8.874-6.038 14.506s2.028 10.505 6.033 14.5c4.004 3.995 8.889 6.019 14.533 6.019 6.647 0 12.115-2.657 16.226-7.882l.052-.068c1-1.381.78-3.084-.587-4.128-1.36-1.037-3.06-.818-4.139.492l-.037.047c-2.944 3.782-6.722 5.628-11.515 5.628-4.05 0-7.45-1.407-10.322-4.272-2.898-2.89-4.32-6.297-4.32-10.336 0-4.037 1.42-7.428 4.314-10.292 2.878-2.871 6.279-4.279 10.328-4.279 2.9 0 5.546.8 7.989 2.416l.208.14c1.656 1.134 3.006 2.498 4.06 4.104l.106.166-23.894 9.557-.096.04c-1.506.653-2.157 2.169-1.59 3.707l.007.02c.432 1.21 1.497 1.952 2.781 1.952l.133-.003c.308-.015.607-.08.89-.192l.132-.056 25.537-10.213.135.356.676-.68.471-.188.096-.04c1.41-.61 2.072-1.981 1.683-3.418l-.026-.092-.07-.282-.1-.201.041.108c-1.502-3.93-4.04-7.115-7.572-9.513-3.497-2.39-7.383-3.598-11.597-3.598z"/></g><path fill="#E74C3C" d="M118 70.774C118 57.645 107.616 47 94.805 47A22.608 22.608 0 0085 49.251a20.958 20.958 0 012.909-.225c12.812 0 23.195 11.571 23.195 25.835A27.421 27.421 0 01105.244 92c7.87-4.107 12.794-12.302 12.756-21.226z"/><path fill="url(#a)" d="M113.96 74.158C113.206 60.286 102.809 49 89.036 49 80.809 49 73.551 55.92 69 62.127c2.965-1.412 6.617-3.458 10.084-2.908 6.703 1.06 13.565 12.243 13.814 20.09.272 8.462-2.009 15.834-8.95 19.691 13.377-.437 30.995-6.776 30.013-24.842z"/><path fill="url(#b)" d="M52.542 60.403c0-17.776 20.963-33.36 20.963-33.36-24.184-1.106-40.059 19.465-39.49 31.036C35.008 78.266 60.73 100 83.862 100c11.327 0 21.6-3.938 29.138-10.325a51.55 51.55 0 01-18.569 3.385c-23.139 0-41.89-14.62-41.89-32.657z"/><path fill="url(#c)" d="M41.675 59.864c0-21.615 19.077-39.182 42.823-39.683A43.443 43.443 0 0074.48 19C50.251 19 26 39.796 26 64.371 26 88.947 50.251 108 74.48 108A43.397 43.397 0 00105 95.45a47.456 47.456 0 01-19.461 4.12c-24.225 0-43.864-17.779-43.864-39.706z"/><path fill="url(#d)" d="M70.137 107.11c-25.157 0-43.42-31.764-43.73-50.555C22.784 35.215 43.07 8.206 66.54 6.171A41.111 41.111 0 0062.971 6C17.188 6 13.193 27.784 12 67.04 12 100.177 35.552 126 62.971 126c24.304 0 46.063-19.13 53.029-46.712-7.08 17.701-27.279 27.822-45.863 27.822z"/><path fill="url(#e)" d="M68.09 107.85c-30.144 0-54.584-24.143-54.584-53.925 0-28.35 22.15-51.57 50.3-53.743A57.9 57.9 0 0059.511 0C26.643 0 0 28.653 0 64.002 0 99.35 26.643 128 59.51 128c29.124 0 54.016-22.323 58.49-52.22-8.88 19.584-28.415 32.136-49.91 32.07z"/></g></svg>
