<?xml version="1.0" encoding="UTF-8"?>
<svg width="185px" height="67px" viewBox="0 0 185 67" version="1.1" xmlns="http://www.w3.org/2000/svg" xmlns:xlink="http://www.w3.org/1999/xlink">
    <title>FLAT_LIGHT_INLINE</title>
    <g id="Page-1" stroke="none" stroke-width="1" fill="none" fill-rule="evenodd">
        <g id="FLAT_LIGHT_INLINE" fill="#FFFFFF" fill-rule="nonzero">
            <g id="Group-25" transform="translate(69.505650, 18.290960)">
                <path d="M1.84795872,8.62801085 C2.69901501,8.62801085 3.29268652,9.26685104 3.31564055,10.1463376 L3.31633042,10.1993924 L3.31633042,28.7391474 C3.31633042,29.6461879 2.71612892,30.3107345 1.84795872,30.3107345 C0.995740839,30.3107345 0.385055157,29.6829329 0.361434349,28.7928634 L0.360724342,28.7391474 L0.360724342,10.1993924 C0.360724342,9.28127835 0.978793678,8.62801085 1.84795872,8.62801085 Z M1.82909605,0 C2.31988365,0 2.76783974,0.202843411 3.11702532,0.571785797 C3.46622523,0.94074332 3.65819209,1.41426883 3.65819209,1.93279113 C3.65819209,2.4597925 3.46973585,2.94058278 3.11702532,3.31372639 C2.76783974,3.68266877 2.31988365,3.88551218 1.82909605,3.88551218 C1.32373609,3.88551218 0.86345974,3.68068437 0.515516467,3.29632138 C0.177968354,2.92396151 0,2.44991045 0,1.93279113 C0,1.42442916 0.18136458,0.957332484 0.51500143,0.589759357 C0.86345974,0.204827813 1.32373609,0 1.82909605,0 Z M1.82909605,1.62541837 C1.74291605,1.62541837 1.65001254,1.66748693 1.60399341,1.71611013 C1.55580343,1.76709188 1.51912591,1.86066372 1.51912591,1.93279113 C1.51912591,2.0237106 1.55885466,2.1217097 1.60447712,2.16991346 C1.65001254,2.21802525 1.74291605,2.26009381 1.82909605,2.26009381 C1.90359821,2.26009381 2.00293401,2.21588833 2.05983508,2.15302995 C2.10348704,2.10493769 2.13906618,2.01330514 2.13906618,1.93279113 C2.13906618,1.87079929 2.10643982,1.78389304 2.06082317,1.73357229 C2.00293401,1.66962385 1.90359821,1.62541837 1.82909605,1.62541837 Z" id="Stroke-3"></path>
                <path d="M15.4268561,8.88418079 C13.4169724,8.88418079 11.5571352,9.46444436 9.87690849,10.6128898 L9.76177438,10.6927402 C9.30389748,11.0146334 8.87794281,11.3664129 8.48418749,11.7476243 L8.38666679,11.8430394 L8.38679156,10.4369973 C8.38679156,9.54118037 7.74465442,8.88418079 6.81657956,8.88418079 C5.88702879,8.88418079 5.2259887,9.52983176 5.2259887,10.4369973 L5.2259887,28.7579179 C5.2259887,29.6655118 5.88705162,30.3107345 6.81657956,30.3107345 C7.74461577,30.3107345 8.38679156,29.6541538 8.38679156,28.7579179 L8.38679156,19.5975591 C8.39839246,17.4701761 9.09398994,15.6803245 10.4864181,14.1813882 C11.8665561,12.7079 13.490918,11.9900169 15.4268561,11.9900169 C17.348226,11.9900169 18.9663526,12.7076389 20.3501274,14.1848316 C21.7526567,15.6818666 22.4467497,17.4678471 22.4467497,19.5975591 L22.4467497,28.7579179 C22.4467497,29.6541471 23.0886973,30.3107345 24.0169617,30.3107345 C24.9461777,30.3107345 25.6073446,29.6654103 25.6073446,28.7579179 L25.6073446,19.5975591 C25.6073446,16.6760056 24.6142424,14.1446305 22.6440281,12.0592196 C20.6727175,9.95731468 18.2424746,8.88418079 15.4268561,8.88418079 Z" id="Stroke-7"></path>
                <path d="M37.8986096,0 C34.8396405,0 32.1882713,1.08623822 30.0058587,3.23268499 C27.8239248,5.37911582 26.6973648,8.00797637 26.6525424,11.058277 L26.6525424,28.7403854 C26.6525424,29.6582154 27.3068439,30.3107345 28.2273871,30.3107345 C29.1462361,30.3107345 29.7820547,29.6467405 29.7820547,28.7403854 L29.7820547,11.2152243 C29.7936799,8.97769914 30.5804606,7.0886864 32.1675862,5.49409163 C33.7592425,3.91855447 35.6504481,3.14090343 37.8986096,3.14090343 C40.1324816,3.14090343 42.0173911,3.91835395 43.6151938,5.50001919 C45.2096519,7.0901446 45.9949874,8.97558002 45.9949874,11.2152243 C45.9949874,13.4540065 45.2106832,15.3311372 43.6151938,16.9105126 C42.0144907,18.5068439 40.1307778,19.2895452 37.8986096,19.2895452 L37.7740846,19.2886932 C36.1178766,19.2659719 34.6264341,18.788713 33.2711447,17.8480291 L33.1865523,17.7883506 L32.6466061,17.365273 L32.6003072,17.3310767 C31.8870581,16.8203401 31.0238719,16.9349604 30.4791734,17.6035452 L30.4661414,17.6199816 L30.4918199,17.5897701 C29.8895748,18.2759869 29.9667083,19.1833974 30.6420883,19.7711477 L30.8250165,19.9249175 C30.9315472,20.0125662 31.0401202,20.0984364 31.1506677,20.182489 L31.2969034,20.2915051 L43.8065112,29.948084 L43.8241808,29.9636776 C44.097947,30.1948349 44.4383712,30.3107345 44.7950665,30.3107345 C45.2889469,30.3107345 45.7419052,30.0984343 46.042545,29.6989289 L46.0550119,29.6820377 L46.08783,29.6352631 C46.5776328,28.9146713 46.4509526,28.0420288 45.744843,27.5027472 L39.0844477,22.3536148 L39.1332606,22.3489862 C41.6909909,22.0901383 43.9378565,21.0129759 45.8342905,19.1348572 C48.0198453,16.9552662 49.1242938,14.2952376 49.1242938,11.2152243 C49.1242938,8.13547391 48.0197406,5.47507801 45.8370885,3.29837213 C43.6409129,1.1088613 40.9740952,0 37.8986096,0 Z" id="Stroke-11"></path>
                <path d="M60.3601695,8.88418079 C57.4202423,8.88418079 54.8758792,9.94070913 52.7896765,12.0267059 C50.7032316,14.1127193 49.6468927,16.6570068 49.6468927,19.5975591 C49.6468927,22.5381501 50.7032608,25.0824508 52.7897619,27.1682947 C54.8755664,29.2543447 57.4198709,30.3107345 60.3601695,30.3107345 C63.2710061,30.3107345 65.7930891,29.2766363 67.8656089,27.233224 L67.9049426,27.1927485 L67.9426783,27.1516001 L67.9675584,27.1226892 L67.9676396,28.7579179 C67.9676396,29.665388 68.6127547,30.3107345 69.5204415,30.3107345 C70.4277904,30.3107345 71.0734463,29.665523 71.0734463,28.7579179 L71.0734463,19.5975591 C71.0734463,16.6573781 70.0169687,14.1130319 67.9307052,12.0267486 C65.8439387,9.94063936 63.2998007,8.88418079 60.3601695,8.88418079 Z M60.3601695,11.9900169 C62.4695062,11.9900169 64.2411756,12.7248799 65.7368435,14.2207402 L65.8176886,14.3026048 C67.2593171,15.7811029 67.9676396,17.5264333 67.9676396,19.5975591 L67.9676396,25.1150728 L67.9302545,25.0741418 L67.8907092,25.0334164 L67.8504187,24.9943588 C67.2139055,24.3952126 66.3321197,24.3957159 65.7115282,25.0190314 L65.6986567,25.0320313 L65.7066754,25.0245541 C64.2099097,26.4864049 62.447789,27.2048983 60.3601695,27.2048983 C58.2506277,27.2048983 56.4792789,26.4701758 54.9834485,24.9743311 C53.4728121,23.4754466 52.7330051,21.7054006 52.7330051,19.5975591 C52.7330051,17.489649 53.472859,15.719447 54.980305,14.2239182 C56.4792763,12.724767 58.250586,11.9900169 60.3601695,11.9900169 Z" id="Stroke-15"></path>
                <path d="M82.8319209,8.36158192 C79.8919937,8.36158192 77.3476306,9.42662209 75.2614279,11.5294245 C73.174983,13.6322437 72.1186441,16.197029 72.1186441,19.1612717 C72.1186441,22.1255533 73.1750122,24.6903519 75.2615133,26.7930003 C77.3473179,28.8958564 79.8916223,29.9607568 82.8319209,29.9607568 C85.7427575,29.9607568 88.2648406,28.9183276 90.3373603,26.8584527 L90.376694,26.817651 L90.4144297,26.7761711 L90.4392692,26.7470888 L90.4393911,28.3954301 C90.4393911,30.5217115 89.7045816,32.3075138 88.2086419,33.8155196 C86.7098518,35.3380812 84.9393283,36.084115 82.8319209,36.084115 C80.7718148,36.084115 79.0381949,35.3813512 77.5728271,33.952505 L77.4515813,33.8331474 C76.8177958,33.2313555 75.935519,33.2319222 75.3148449,33.8609299 L75.3013812,33.8750809 C74.6706191,34.5102798 74.6706191,35.4101324 75.2759778,36.0609733 L75.3066714,36.0926978 C77.3798805,38.1528057 79.908419,39.1949153 82.8319209,39.1949153 C85.7717378,39.1949153 88.3158465,38.1300152 90.4023712,36.0271157 C92.4886999,33.9239588 93.5451977,31.3591226 93.5451977,28.3954301 L93.5451977,19.1612717 C93.5451977,16.1974034 92.4887202,13.6325588 90.4024566,11.5294676 C88.3156901,9.42655176 85.7715521,8.36158192 82.8319209,8.36158192 Z M82.8319209,11.4924399 C84.9412576,11.4924399 86.712927,12.2332233 88.2085949,13.7411348 L88.28944,13.823659 C89.7310685,15.3140685 90.4393911,17.07346 90.4393911,19.1612717 L90.4393911,24.7230935 L90.4020059,24.681976 C90.3891174,24.6681786 90.3759359,24.6544925 90.3624607,24.6409224 L90.3221701,24.6015503 C89.685657,23.997577 88.8038712,23.9980844 88.1832797,24.6264216 L88.167322,24.6428623 L88.1752808,24.6350984 C86.67852,26.1203986 84.9176243,26.8499566 82.8319209,26.8499566 C80.7624114,26.8499566 79.0184807,26.1309898 77.5401416,24.6666046 L77.4582845,24.5844829 C75.9445635,23.0704011 75.2047565,21.2860948 75.2047565,19.1612717 C75.2047565,17.0363794 75.9446104,15.2519159 77.4520564,13.7443385 C78.9510277,12.2331095 80.7223375,11.4924399 82.8319209,11.4924399 Z" id="Stroke-19"></path>
                <path d="M105.33817,8.88418079 C102.390144,8.88418079 99.8386958,9.93365655 97.7459123,12.0069404 C95.6500371,14.0979809 94.5903955,16.644404 94.5903955,19.5874997 C94.5903955,22.5307171 95.6501273,25.0773571 97.7431982,27.1651577 C99.8358779,29.2532456 102.388455,30.3107345 105.33817,30.3107345 C108.811846,30.3107345 111.669564,28.9224235 113.818108,26.1916252 L113.844979,26.1560334 C114.367567,25.4343532 114.252187,24.5443137 113.538387,23.9989275 C112.827368,23.4567975 111.939538,23.5711137 111.375232,24.2560023 L111.355786,24.2802837 C109.817555,26.2567727 107.843113,27.2217535 105.33817,27.2217535 C103.221988,27.2217535 101.444878,26.4863452 99.943986,24.9890871 C98.4295398,23.4784844 97.6863004,21.6985534 97.6863004,19.5874997 C97.6863004,17.4776503 98.4285507,15.7058197 99.9408794,14.208915 C101.444875,12.7083944 103.221946,11.9729585 105.33817,11.9729585 C106.854002,11.9729585 108.236734,12.3908983 109.513015,13.2354677 L109.622026,13.3088472 C110.48744,13.900914 111.1927,14.6138125 111.743266,15.4534228 L111.799158,15.5401828 L99.3118704,20.5344956 L99.2621038,20.5552289 C98.4751129,20.8964275 98.1346177,21.6889147 98.4305421,22.4927773 L98.43469,22.5029797 C98.660492,23.1351561 99.216946,23.5233085 99.8880002,23.5233085 L99.9572811,23.5216526 C100.11831,23.5139455 100.274785,23.4794805 100.423078,23.4212929 L100.49164,23.3920878 L113.83709,18.0548571 L113.907746,18.2408904 L114.260768,17.8853696 L114.507421,17.7869722 L114.557155,17.7663117 C115.294493,17.4475025 115.639979,16.7307565 115.436956,15.9800608 L115.423169,15.9316955 L115.387066,15.7844479 L115.334017,15.6793901 L115.356112,15.7360608 C114.571178,13.6825919 113.244959,12.0174598 111.398861,10.7646588 C109.570974,9.51506373 107.54028,8.88418079 105.33817,8.88418079 Z" id="Stroke-23"></path>
            </g>
            <g id="Fichier-2-Copy">
                <path d="M61.5698184,37.1877671 C61.5698184,30.3747863 56.1443376,24.8504808 49.4499466,24.8504808 C47.6764746,24.8526009 45.9259742,25.2517312 44.3268697,26.0185897 C44.830214,25.944697 45.3380694,25.9057328 45.8467949,25.9019765 C52.5411859,25.9019765 57.9666667,31.9065705 57.9666667,39.308547 C57.9666667,42.7199786 56.4744124,46.7599359 54.575,49.1277778 C58.526015,47.0939637 61.5698184,42.0005342 61.5698184,37.1877671 Z" id="Path"></path>
                <g id="Group" opacity="0.5" transform="translate(35.972222, 25.496795)">
                    <path d="M23.5301816,13.2899573 C23.1348825,6.06784188 17.6935897,0.191720085 10.4853098,0.191720085 C6.18050214,0.191720085 2.38167735,3.79487179 0,7.02644231 C1.55154915,6.2911859 3.46282051,5.2258547 5.27724359,5.51244658 C8.7855235,6.06388889 12.507265,9.17094017 12.507265,15.972062 C12.507265,20.9627137 6.4769765,28.8449786 2.84417735,30.8530983 C9.8528312,30.6356838 24.0440705,22.6961004 23.5301816,13.2899573 Z" id="Path"></path>
                </g>
                <g id="Group" opacity="0.4" transform="translate(17.986111, 13.835470)">
                    <path d="M9.70459402,17.6263889 C9.70459402,8.28547009 20.6385684,0.0968482906 20.6385684,0.0968482906 C8.02457265,-0.484241453 -0.254967949,10.3252137 0.0415064103,16.4049145 C0.559348291,27.0127671 13.9758013,38.4329594 26.0403312,38.4329594 C31.9480769,38.4329594 37.3063568,36.3635684 41.2376068,33.0074786 C38.147468,34.1955013 34.8633975,34.798698 31.5527778,34.7863248 C19.4842949,34.7863248 9.70459402,27.1036859 9.70459402,17.6263889 Z" id="Path"></path>
                </g>
                <g id="Group" opacity="0.2" transform="translate(13.242521, 9.684829)">
                    <path d="M8.38627137,21.4430021 C8.38627137,10.1176816 18.3853632,0.913141026 30.8293803,0.650267094 C29.1094746,0.240947637 27.3477486,0.0333345943 25.5798077,0.0316239316 C12.8827991,0.0316239316 0.173931624,10.9280449 0.173931624,23.8049145 C0.173931624,36.6817842 12.8827991,46.6650641 25.5798077,46.6650641 C31.5689364,46.6644793 37.3161094,44.3015474 41.5736111,40.0892628 C38.3646674,41.5210533 34.8887602,42.2566523 31.3748932,42.2475962 C18.6798611,42.2475962 8.38627137,32.9323718 8.38627137,21.4430021 Z" id="Path"></path>
                </g>
                <g id="Group" opacity="0.5" transform="translate(5.929487, 3.360043)">
                    <path d="M30.5427885,52.7032585 C17.3733974,52.7032585 7.81308761,36.1718483 7.65101496,26.3921474 C5.75357906,15.2862179 16.3732906,1.22938034 28.659188,0.169978632 C28.0425214,0.116613248 27.4199252,0.0810363248 26.7913996,0.0810363248 C2.82441239,0.0810363248 0.733279915,11.4162393 0.108707265,31.8492521 C0.108707265,49.0941774 12.4380876,62.5343483 26.7913996,62.5343483 C39.5141026,62.5343483 50.9046474,52.5787393 54.5512821,38.2234509 C50.8453526,47.4358974 40.2711004,52.7032585 30.5427885,52.7032585 Z" id="Path"></path>
                </g>
                <path d="M35.4346154,56.1008547 C19.7451923,56.1008547 7.0284188,43.5422009 7.0284188,28.0504274 C7.0284188,13.3037927 18.5553419,1.22542735 33.2051282,0.0948717949 C32.4580128,0.0395299145 31.7188034,0 30.967735,0 C13.8651175,0 0,14.9047543 0,33.292094 C0,51.6794338 13.8651175,66.5822115 30.967735,66.5822115 C46.1254808,66.5822115 59.0794338,54.9702991 61.4057692,39.4192308 C56.7846302,49.6050938 46.6196778,56.1341804 35.4346154,56.1008547 Z" id="Path"></path>
            </g>
        </g>
    </g>
</svg>