<svg width="24" height="24" viewBox="0 0 24 24" fill="none" xmlns="http://www.w3.org/2000/svg">
<path d="M18.75 9C18.75 5.27344 15.7266 2.25 12 2.25C8.27344 2.25 5.25 5.27344 5.25 9C5.25 9.58125 5.46094 10.4812 5.96719 11.6812C6.45937 12.8437 7.15781 14.1281 7.95938 15.4266C9.29531 17.5922 10.8422 19.6828 12 21.1734C13.1625 19.6828 14.7094 17.5922 16.0406 15.4266C16.8422 14.1281 17.5406 12.8437 18.0328 11.6812C18.5391 10.4812 18.75 9.58125 18.75 9ZM21 9C21 13.0969 15.5156 20.3906 13.1109 23.4C12.5344 24.1172 11.4656 24.1172 10.8891 23.4C8.48438 20.3906 3 13.0969 3 9C3 4.03125 7.03125 0 12 0C16.9688 0 21 4.03125 21 9ZM13.5 9C13.5 8.60218 13.342 8.22064 13.0607 7.93934C12.7794 7.65804 12.3978 7.5 12 7.5C11.6022 7.5 11.2206 7.65804 10.9393 7.93934C10.658 8.22064 10.5 8.60218 10.5 9C10.5 9.39782 10.658 9.77936 10.9393 10.0607C11.2206 10.342 11.6022 10.5 12 10.5C12.3978 10.5 12.7794 10.342 13.0607 10.0607C13.342 9.77936 13.5 9.39782 13.5 9ZM8.25 9C8.25 8.00544 8.64509 7.05161 9.34835 6.34835C10.0516 5.64509 11.0054 5.25 12 5.25C12.9946 5.25 13.9484 5.64509 14.6517 6.34835C15.3549 7.05161 15.75 8.00544 15.75 9C15.75 9.99456 15.3549 10.9484 14.6517 11.6517C13.9484 12.3549 12.9946 12.75 12 12.75C11.0054 12.75 10.0516 12.3549 9.34835 11.6517C8.64509 10.9484 8.25 9.99456 8.25 9Z" fill="white"/>
</svg>
