<svg width="24" height="24" viewBox="0 0 24 24" fill="none" xmlns="http://www.w3.org/2000/svg">
<path d="M4 4C4 6.20913 5.79087 8 8 8H12V0H8C5.79087 0 4 1.79087 4 4Z" fill="#FF3737"/>
<path d="M12 0V8H16C18.2091 8 20 6.20913 20 4C20 1.79087 18.2091 0 16 0H12Z" fill="#FF7237"/>
<path d="M4 12C4 14.2091 5.79087 16 8 16H12V8H8C5.79087 8 4 9.79087 4 12Z" fill="#874FFF"/>
<path d="M16 16C18.2091 16 20 14.2091 20 12C20 9.79086 18.2091 8 16 8C13.7909 8 12 9.79086 12 12C12 14.2091 13.7909 16 16 16Z" fill="#00B6FF"/>
<path d="M4 20C4 17.7909 5.79087 16 8 16H12V20C12 22.2091 10.2091 24 8 24C5.79087 24 4 22.2091 4 20Z" fill="#24CB71"/>
</svg>
