<svg width="24" height="24" viewBox="0 0 24 24" fill="none" xmlns="http://www.w3.org/2000/svg">
<path d="M2.02813 3.82187C2.02813 2.26094 3.28438 1.00469 4.83125 1.00469C6.2375 1.00469 7.38594 2.03125 7.60625 3.35781C9.13437 3.00156 10.7516 3.38594 12.1297 4.76406L10.0531 6.84062C9.09219 5.87969 8.05625 6.07656 7.45625 6.67656C6.78594 7.34687 6.78594 8.45313 7.45625 9.12344L12.1203 13.7875L10.0578 15.8641C5.94687 11.7766 7.72812 13.5344 5.37969 11.1906C4.12344 9.94844 3.73906 8.15312 4.21719 6.55469C2.95625 6.28281 2.02813 5.1625 2.02813 3.82187ZM8.09844 9.27813L10.175 11.3547C10.6437 10.8859 14.3797 7.15 14.8484 6.67656C15.5188 6.00625 16.6109 6.00625 17.2812 6.67656C17.8813 7.27656 18.0781 8.31719 17.1172 9.27344L19.1797 11.35C20.6422 9.8875 20.9844 8.18125 20.5344 6.60625C21.9031 6.41406 22.9672 5.2375 22.9672 3.81719C22.9672 2.26094 21.7109 1 20.1641 1C18.7438 1 17.5672 2.05469 17.375 3.41875C15.7906 2.95469 14.0141 3.34844 12.7672 4.59531C11.9094 5.49062 9.43438 7.94688 8.09844 9.27813ZM20.5812 16.4125C20.9656 14.8797 20.5391 13.2016 19.3484 12.0109C18.7953 11.4391 19.5828 12.2313 14.6844 7.3375L12.6078 9.41406L17.2812 14.0875C17.9516 14.7578 17.9516 15.85 17.2812 16.5203C16.6812 17.1203 15.6406 17.3172 14.6844 16.3563L12.6219 18.4328C13.9156 19.8484 15.8094 20.2516 17.4359 19.7453C17.6937 21.0297 18.8281 22 20.1969 22C21.7438 22 23 20.7437 23 19.1828C23 17.7672 21.9453 16.6047 20.5812 16.4125ZM16.6297 13.9234L14.5672 11.8469C10.4891 15.8969 12.2047 14.2094 9.89375 16.525C9.22344 17.1953 8.13125 17.1953 7.46094 16.525C6.84687 15.8969 6.66875 14.8703 7.61094 13.9281L5.54844 11.8516C4.13281 13.2672 3.76719 14.9078 4.16563 16.4594C2.91406 16.7406 2 17.8609 2 19.1875C2 20.7484 3.25625 22.0047 4.80312 22.0047C6.14375 22.0047 7.26406 21.0766 7.55 19.8156C9.08281 20.2 10.7609 19.7875 11.9656 18.5969C13.4703 17.0969 12.5375 18.0156 16.6297 13.9234Z" fill="white"/>
</svg>
