<svg width="24" height="24" viewBox="0 0 24 24" fill="none" xmlns="http://www.w3.org/2000/svg">
<g clip-path="url(#clip0_77_226)">
<path d="M7.77928 18.414C7.97091 18.3287 8.16506 18.2502 8.361 18.1766C8.58225 18.0935 8.80528 18.0153 9.03131 17.9472C9.31266 17.8625 9.59634 17.7858 9.88388 17.7247C10.2718 17.6422 10.6642 17.5816 11.0589 17.5432C10.8358 18.2431 10.5917 18.9361 10.3269 19.6214C10.3378 19.7552 10.3449 19.8892 10.3479 20.0234C10.892 19.9158 11.4454 19.8616 12 19.8615C12.5654 19.8615 13.1175 19.9179 13.6521 20.0234C13.6551 19.8892 13.6622 19.7552 13.6731 19.6214C13.4083 18.9361 13.1642 18.2431 12.9411 17.5432C13.3362 17.5815 13.7285 17.6424 14.1161 17.7247C14.4036 17.7858 14.6872 17.8625 14.9686 17.9472C15.1947 18.0153 15.4177 18.0935 15.639 18.1766C15.835 18.2503 16.0293 18.3288 16.2209 18.4141C17.6062 19.03 18.8402 19.9409 19.8368 21.0833C22.385 18.8828 24 15.631 24 12C24 5.37262 18.6274 0 12 0C5.37262 0 0 5.37262 0 12C0 15.631 1.61503 18.8828 4.16316 21.0833C5.15985 19.9409 6.39397 19.0299 7.77928 18.414Z" fill="#A5DBE8"/>
<path d="M16.221 18.4142L16.9659 20.9757L17.1773 20.9856C17.3144 20.9856 17.4109 21.0217 17.4109 21.1589C17.4109 21.3869 17.4227 21.6431 17.4445 21.8668C17.6302 22.0244 17.8562 22.2021 18.0276 22.3748C18.6693 22.0011 19.275 21.5687 19.8369 21.0833C18.8403 19.941 17.6063 19.03 16.221 18.4142ZM14.7644 18.3886L15.6391 18.1767C15.4178 18.0935 15.1948 18.0153 14.9687 17.9473C14.6873 17.8625 14.4037 17.7858 14.1162 17.7248C13.7283 17.6423 13.3359 17.5817 12.9412 17.5432C13.1643 18.2431 13.4084 18.9362 13.6732 19.6215C13.6623 19.7552 13.6552 19.8893 13.6522 20.0235C14.2719 20.1457 14.8813 20.3582 15.4448 20.6073L14.7644 18.3886Z" fill="#525353"/>
<path d="M5.97241 22.3747C6.11172 22.4559 6.25244 22.5351 6.39551 22.6108C6.44557 22.3703 6.52563 22.0371 6.54982 21.7897C6.36419 21.9473 6.14379 22.202 5.97241 22.3747ZM15.4299 20.5851C14.8599 20.3326 14.2636 20.1442 13.6519 20.0234C13.1078 19.9158 12.5545 19.8616 11.9999 19.8615C11.4344 19.8615 10.8824 19.9179 10.3478 20.0234C9.72813 20.1455 9.08154 20.3309 8.51829 20.58L8.45838 20.9532H15.5416L15.4299 20.5851Z" fill="black"/>
<path d="M6.52793 21.8608C6.54987 21.6371 6.56571 21.4377 6.56571 21.2096C6.56571 21.0725 6.65974 20.9847 6.7969 20.9847L7.0218 20.9768L7.77921 18.4139C6.3939 19.0298 5.15978 19.9408 4.16309 21.0832C4.72505 21.5686 5.33076 22.001 5.97246 22.3747C6.14383 22.2018 6.32249 22.0364 6.50796 21.8788" fill="#525353"/>
<path d="M17.536 22.3167C17.5846 22.5605 17.5955 22.609 17.6044 22.6108C17.747 22.535 17.888 22.4563 18.0275 22.3748C17.8542 22.2 17.6737 22.0327 17.4863 21.8733L17.536 22.3167Z" fill="black"/>
<path d="M15.4301 20.5852L15.5418 20.9532H16.9906L16.221 18.4141C16.0294 18.3292 15.8354 18.25 15.6391 18.1766L14.7644 18.3885L15.4301 20.5852Z" fill="#AA9678"/>
<path d="M7.03491 21.4661C7.04251 21.4607 7.05019 21.4554 7.05769 21.45H7.03594C7.03576 21.4553 7.03519 21.4607 7.03491 21.4661Z" fill="#C4B6A1"/>
<path d="M16.964 21.45H16.9421L16.9649 21.4661C16.9647 21.4607 16.9642 21.4553 16.964 21.45Z" fill="#AA9678"/>
<path d="M16.9392 21.4128L11.9897 21.4185L12.0001 24C13.8421 24 15.5866 23.5838 17.1463 22.8421C17.0445 22.3947 17.0342 21.9128 17.0177 21.4439C17.0102 21.4384 16.9392 21.4128 16.9392 21.4128Z" fill="#AA9678"/>
<path d="M11.992 21.4292C11.992 21.4292 7.01529 21.423 7.0077 21.4283C6.9912 21.8973 6.89445 22.4538 6.85376 22.8421C8.41348 23.5839 10.158 24.0001 12 24.0001L12.0028 21.4376L11.992 21.4292Z" fill="#C4B6A1"/>
<path d="M19.8482 11.9221C19.8486 11.9253 19.8495 11.9281 19.8499 11.9313C19.8502 11.9332 19.8507 11.935 19.851 11.9369V11.9376C19.8567 11.9835 19.8589 12.0314 19.8599 12.0797C19.8601 12.0886 19.8616 12.0969 19.8616 12.1057L19.8617 12.109L19.8616 12.1126C19.8615 12.1221 19.8599 12.1311 19.8598 12.1405C19.8592 12.1871 19.8563 12.2336 19.8511 12.2798V12.2805L19.8498 12.2873C19.8494 12.291 19.8483 12.2943 19.8478 12.2978C19.8415 12.3456 19.8326 12.3931 19.8209 12.4399L19.8207 12.4405L19.8224 12.4387L19.8231 12.4366V12.4367L20.1372 12.1079L19.8206 11.7765L19.8206 11.7771C19.8325 11.8234 19.8415 11.8719 19.8482 11.9221Z" fill="#676A6A"/>
<path d="M19.8477 12.2978C19.8486 12.2917 19.8502 12.2861 19.851 12.2798C19.8566 12.2348 19.8586 12.1879 19.8597 12.1405C19.8598 12.1298 19.8615 12.1198 19.8615 12.109C19.8615 12.099 19.86 12.0896 19.8598 12.0797C19.8593 12.0322 19.8563 11.9848 19.8509 11.9377C19.8502 11.9322 19.8488 11.9274 19.8481 11.9221C19.8417 11.8733 19.8325 11.8249 19.8206 11.7772C19.8164 11.761 19.8107 11.7467 19.8059 11.7311C19.7775 11.6372 19.7388 11.5542 19.6929 11.4853C19.6753 11.4591 19.6561 11.4341 19.6353 11.4103C19.6163 11.3893 19.5956 11.37 19.5732 11.3527C19.565 11.3464 19.5563 11.342 19.5478 11.3365C19.522 11.3195 19.494 11.306 19.4646 11.2963C19.4368 11.2871 19.4079 11.2821 19.3786 11.2815C19.3492 11.2815 19.3207 11.2877 19.2927 11.2963C19.2632 11.306 19.2352 11.3195 19.2093 11.3365C19.2011 11.342 19.1922 11.3463 19.1841 11.3526C19.1455 11.3827 19.1115 11.4183 19.0834 11.4584C19.0768 11.4672 19.0705 11.4762 19.0644 11.4854C19.0184 11.5543 18.9796 11.6373 18.9513 11.7312L18.9477 11.7425C18.9352 11.7856 18.9254 11.831 18.9173 11.8776C18.9148 11.8918 18.9116 11.9055 18.9096 11.9201C18.9021 11.9722 18.8982 12.0266 18.8973 12.0823C18.8972 12.09 18.896 12.0973 18.896 12.105H18.8979C18.8979 12.5621 19.1142 12.9326 19.3809 12.9326C19.4268 12.9326 19.471 12.9206 19.5131 12.9001C19.5383 12.8877 19.5621 12.8727 19.5841 12.8552C19.5932 12.8479 19.6017 12.8391 19.6105 12.8308C19.6317 12.8109 19.652 12.7884 19.6712 12.7634C19.6845 12.7459 19.6977 12.7283 19.7098 12.7087C19.7176 12.6963 19.7247 12.6828 19.732 12.6695C19.7455 12.6445 19.7582 12.6186 19.7697 12.591C19.7741 12.5811 19.7785 12.5714 19.7824 12.5612C19.7971 12.5228 19.81 12.4823 19.8208 12.4399C19.8324 12.3946 19.841 12.347 19.8477 12.2978ZM19.396 11.9989C19.2959 11.9989 19.2148 11.8598 19.2148 11.6885C19.2148 11.5172 19.2959 11.3782 19.396 11.3782C19.496 11.3782 19.577 11.5172 19.577 11.6885C19.577 11.8598 19.496 11.9989 19.396 11.9989Z" fill="black"/>
<path d="M19.396 11.3782C19.2959 11.3782 19.2148 11.5172 19.2148 11.6885C19.2148 11.8599 19.2959 11.9989 19.396 11.9989C19.496 11.9989 19.577 11.8599 19.577 11.6885C19.577 11.5172 19.496 11.3782 19.396 11.3782Z" fill="white"/>
<path d="M18.9513 11.7312C18.9796 11.6372 19.0184 11.5543 19.0643 11.4854C19.0705 11.476 19.0768 11.4673 19.0834 11.4584C19.1114 11.4182 19.1454 11.3825 19.184 11.3525C19.1922 11.3462 19.201 11.3419 19.2093 11.3365C19.2351 11.3194 19.2632 11.3059 19.2926 11.2963C19.3205 11.2875 19.3491 11.2815 19.3786 11.2815C19.408 11.2815 19.4366 11.2875 19.4645 11.2963C19.4939 11.306 19.5219 11.3195 19.5478 11.3365C19.5562 11.3419 19.565 11.3463 19.5732 11.3526C19.5948 11.3691 19.6154 11.3886 19.6353 11.4103C19.656 11.434 19.6752 11.4591 19.6928 11.4853C19.7388 11.5542 19.7775 11.6371 19.8059 11.7311V11.7313L19.3786 9.77405L18.9513 11.7312Z" fill="#909393"/>
<path d="M13.7155 12.0908C13.7149 12.0514 13.7124 12.0125 13.708 11.9742C13.7079 11.9738 13.7077 11.9732 13.7077 11.9726C13.7033 11.9352 13.697 11.898 13.6889 11.8613L13.6881 11.8584C13.6801 11.8225 13.6703 11.7871 13.6588 11.7521L13.6578 11.7498C13.6464 11.7151 13.6332 11.6811 13.6183 11.6478C13.6181 11.6471 13.6176 11.6465 13.6173 11.6457C13.4982 11.3807 13.2822 11.1714 13.0135 11.0607L13.0102 11.0595C12.9448 11.0328 12.8771 11.0124 12.8079 10.9985C12.8061 10.9982 12.8044 10.9981 12.8026 10.9977C12.7312 10.9836 12.6586 10.9765 12.5858 10.9764C12.5128 10.9764 12.4418 10.9839 12.3727 10.9972L12.3654 10.9983C12.2967 11.012 12.2304 11.032 12.1667 11.0575L12.1617 11.0595C12.0973 11.0856 12.0355 11.1177 11.9771 11.1552C11.9187 11.1929 11.8638 11.2358 11.8134 11.2831L11.8122 11.2869L11.808 11.2879C11.7272 11.3647 11.658 11.453 11.6027 11.5498L11.6007 11.5533C11.5838 11.583 11.5685 11.6139 11.5545 11.6454C11.553 11.6488 11.5511 11.652 11.5497 11.6554C11.5368 11.6845 11.5258 11.7147 11.5155 11.7451C11.5135 11.7511 11.5109 11.7567 11.509 11.7626C11.5 11.791 11.4927 11.8202 11.4857 11.8493C11.484 11.8578 11.4812 11.8658 11.4795 11.8742C11.4735 11.9031 11.4693 11.9326 11.4655 11.9622C11.4644 11.9713 11.4624 11.98 11.4615 11.9891C11.4497 12.1014 11.4549 12.2148 11.4768 12.3255C11.477 12.3269 11.4771 12.3285 11.4775 12.33C11.4917 12.4006 11.5125 12.4687 11.5392 12.5338C11.5396 12.5348 11.5397 12.5357 11.5402 12.5365C11.5943 12.6674 11.6724 12.7869 11.7705 12.889C11.8473 12.9692 11.9358 13.0379 12.0332 13.0928L12.0346 13.0937C12.0649 13.1108 12.0963 13.1261 12.1283 13.1404C12.1309 13.1415 12.1335 13.143 12.1362 13.1441C12.1658 13.1571 12.1965 13.1682 12.2273 13.1786C12.2326 13.1804 12.2376 13.1827 12.2429 13.1843C12.2714 13.1934 12.3008 13.2008 12.3302 13.2075C12.3382 13.2094 12.3459 13.212 12.354 13.2137C12.3826 13.2196 12.412 13.2236 12.4416 13.2275C12.4505 13.2285 12.4593 13.2306 12.4684 13.2315C12.7325 13.2593 12.9978 13.1931 13.2179 13.0446C13.3382 12.9632 13.4419 12.8596 13.5233 12.7392C13.6494 12.5525 13.7167 12.3323 13.7164 12.1071C13.7164 12.1043 13.7161 12.1018 13.7161 12.0993C13.716 12.0964 13.7156 12.0937 13.7155 12.0908ZM12.5858 11.9583C12.53 11.9583 12.4748 11.9473 12.4233 11.9259C12.3717 11.9046 12.3249 11.8733 12.2855 11.8338C12.2461 11.7944 12.2148 11.7476 12.1934 11.696C12.1721 11.6445 12.1611 11.5893 12.1611 11.5335C12.1611 11.4777 12.1721 11.4225 12.1935 11.371C12.2148 11.3194 12.2461 11.2726 12.2856 11.2332C12.325 11.1937 12.3718 11.1625 12.4234 11.1411C12.4749 11.1198 12.5301 11.1088 12.5859 11.1088C12.6985 11.1088 12.8066 11.1536 12.8862 11.2333C12.9659 11.3129 13.0106 11.421 13.0106 11.5336C13.0106 11.6462 12.9658 11.7543 12.8862 11.8339C12.8065 11.9136 12.6985 11.9583 12.5858 11.9583Z" fill="black"/>
<path d="M12.5858 11.1088C12.4732 11.1088 12.3652 11.1535 12.2855 11.2332C12.2059 11.3128 12.1611 11.4208 12.1611 11.5335C12.1611 11.6461 12.2059 11.7541 12.2855 11.8338C12.3652 11.9134 12.4732 11.9581 12.5858 11.9581C12.6985 11.9581 12.8065 11.9134 12.8861 11.8338C12.9658 11.7541 13.0105 11.6461 13.0105 11.5335C13.0105 11.4208 12.9658 11.3128 12.8861 11.2332C12.8065 11.1535 12.6985 11.1088 12.5858 11.1088Z" fill="white"/>
<path d="M11.808 11.2879L11.8123 11.2869L11.8135 11.2831L12.5922 8.90163V8.34429L12.5921 8.33801C12.1526 8.24701 11.705 8.20084 11.2561 8.2002C11.1038 8.2002 10.9527 8.20666 10.8025 8.21688C10.7806 8.21838 10.7587 8.2197 10.7368 8.22138C9.95517 8.28073 9.18548 8.48445 8.47279 8.80976C7.86164 9.08885 7.2938 9.45644 6.78333 9.89229L6.78248 9.89313C6.6459 10.0101 6.5136 10.132 6.38583 10.2585C6.36183 10.2819 6.33745 10.3052 6.31373 10.329C6.19295 10.4508 6.07611 10.5765 5.96339 10.7058C5.93892 10.734 5.91483 10.7628 5.89064 10.7913C5.77688 10.9247 5.66739 11.0618 5.56233 11.2022C5.55361 11.214 5.54545 11.2264 5.53683 11.2382C5.43717 11.3743 5.34162 11.5133 5.25033 11.6552C5.23242 11.6828 5.21405 11.7101 5.19651 11.738C5.12245 11.8555 5.05354 11.9762 4.98511 12.0971H8.53233L11.808 11.2879Z" fill="#BBBCBD"/>
<path d="M14.8026 11.0199C14.8098 10.927 14.8157 10.8342 14.8205 10.7412C14.8269 10.6154 14.8314 10.4894 14.8338 10.3635C14.8357 10.2657 14.8354 10.1678 14.8349 10.07C14.8349 10.0418 14.8356 10.0136 14.8353 9.98529C14.8324 9.73282 14.8231 9.48046 14.8074 9.22845L14.8053 9.22704L14.8044 9.22526C14.7106 9.17141 14.6168 9.11779 14.5228 9.06439L14.5163 9.06064L14.4429 9.01911L14.4415 9.01836L14.3906 8.98986L14.3806 8.98423C14.3683 8.97741 14.356 8.97069 14.3436 8.96407C14.1805 8.87944 14.0142 8.80129 13.8449 8.72979C13.4415 8.55945 12.8981 8.41011 12.592 8.33801V8.90164L13.3639 11.2869L13.3647 11.2889C13.4444 11.3648 13.5129 11.4521 13.5679 11.5483C13.5859 11.5798 13.6024 11.6124 13.6173 11.6457C13.6177 11.6464 13.618 11.6471 13.6182 11.6478C13.6331 11.6809 13.6463 11.715 13.6578 11.7498L13.6587 11.7521C13.6702 11.7869 13.68 11.8223 13.6881 11.8584L13.6888 11.8612C13.6969 11.8977 13.7032 11.9349 13.7077 11.9726C13.7077 11.9732 13.7079 11.9737 13.7079 11.9742C13.7124 12.0124 13.7149 12.0514 13.7154 12.0907L13.7184 12.0971H14.6634C14.7269 11.7503 14.7724 11.4004 14.8 11.0489C14.8007 11.0392 14.8018 11.0296 14.8026 11.0199Z" fill="#E3DDDB"/>
<path d="M16.0386 10.1765C16.0379 10.1775 16.0374 10.1788 16.0369 10.1798L16.0386 10.1765Z" fill="#FCB03F"/>
<path d="M11.8135 11.283C11.8643 11.2355 11.9193 11.1926 11.9778 11.1549C12.0361 11.1175 12.0976 11.0855 12.1618 11.0595C12.1634 11.0587 12.1652 11.0582 12.1668 11.0575C12.2311 11.0317 12.2976 11.0118 12.3655 10.9982L12.3728 10.9971C12.443 10.9835 12.5144 10.9765 12.5859 10.9764C12.6601 10.9764 12.7325 10.9839 12.8027 10.9977C12.8045 10.998 12.8062 10.9981 12.808 10.9984C12.8783 11.0125 12.9472 11.0334 13.0136 11.0607C13.1438 11.1144 13.2629 11.1917 13.3649 11.2889L13.364 11.2869L12.5922 8.90161L11.8135 11.283Z" fill="#909393"/>
<path d="M11.5391 12.5338C11.5121 12.468 11.4914 12.3997 11.4774 12.33C11.477 12.3285 11.4769 12.3269 11.4768 12.3255C11.4548 12.2147 11.4496 12.1014 11.4614 11.9891C11.4623 11.98 11.4643 11.9713 11.4654 11.9622C11.4693 11.9326 11.4734 11.903 11.4794 11.8742C11.4812 11.8658 11.4839 11.8577 11.4857 11.8493C11.4926 11.8202 11.4999 11.791 11.5089 11.7626C11.5109 11.7567 11.5133 11.7511 11.5154 11.7451C11.5257 11.7147 11.5368 11.6845 11.5496 11.6553C11.551 11.652 11.5529 11.6488 11.5544 11.6454C11.5684 11.6139 11.5837 11.583 11.6006 11.5532L11.6027 11.5498C11.658 11.4529 11.7271 11.3647 11.8079 11.2878L8.53216 12.0971H8.52588L11.7704 12.889C11.6723 12.7869 11.5942 12.6673 11.5401 12.5365C11.5397 12.5357 11.5395 12.5347 11.5391 12.5338Z" fill="#676A6A"/>
<path d="M18.9096 11.9202C18.9116 11.9055 18.9147 11.8918 18.9172 11.8776C18.9254 11.831 18.9351 11.7856 18.9477 11.7425C18.9491 11.7376 18.9497 11.7321 18.9512 11.7273L19.3786 9.77019L19.3785 8.65429C19.0293 8.36582 18.6553 8.20813 18.266 8.20813C17.774 8.20813 17.3152 8.47982 16.9722 8.81535C16.5968 9.18257 16.3068 9.64457 16.0722 10.1108C16.0614 10.1323 16.0504 10.1529 16.0397 10.1744C16.112 10.2371 16.1835 10.3005 16.2541 10.3651C16.4136 10.5116 16.5704 10.661 16.7243 10.8133C16.7961 10.8842 16.8666 10.9566 16.9373 11.0287C17.0123 11.1051 17.0874 11.1813 17.1613 11.2589C17.2964 11.4009 17.4296 11.5446 17.5609 11.69C17.6735 11.8142 17.7849 11.9396 17.8951 12.066L17.8953 12.0662C17.9137 12.0855 17.9267 12.0994 17.9316 12.105H18.8956C18.8956 12.0973 18.8972 12.0901 18.8973 12.0823C18.8982 12.0267 18.9021 11.9723 18.9096 11.9202ZM16.0396 10.1796L16.0386 10.1767L16.0369 10.1799L16.0411 10.184C16.0406 10.1825 16.0401 10.1811 16.0396 10.1796Z" fill="#E3DDDB"/>
<path d="M4.40387 13.3287L4.4125 13.3071C4.54193 12.9713 4.69119 12.6434 4.8595 12.3253C4.88556 12.2758 4.91106 12.2261 4.93806 12.1771C4.95296 12.15 4.96984 12.1241 4.98503 12.0971C5.05346 11.9762 5.12237 11.8555 5.19643 11.738C5.21397 11.71 5.23234 11.6828 5.25025 11.6552C5.34154 11.5133 5.43709 11.3742 5.53675 11.2382C5.54537 11.2263 5.55353 11.214 5.56225 11.2022C5.66731 11.0617 5.7768 10.9247 5.89056 10.7912C5.91475 10.7627 5.93875 10.7341 5.96331 10.7057C6.07603 10.5764 6.19287 10.4508 6.31365 10.329C6.33747 10.3052 6.36175 10.2819 6.38575 10.2585C6.51352 10.1319 6.64582 10.0101 6.7824 9.89312L6.78325 9.89228C7.3224 8.08628 9.06334 6.97647 11.0153 6.97647C11.8009 6.97647 12.5822 7.20287 13.2518 7.61246C13.9386 8.03256 14.4069 8.443 14.7705 9.16047L14.7759 9.17125C14.7851 9.18943 14.7954 9.20687 14.8044 9.22525L14.8053 9.22703L14.8075 9.22843C15.1128 9.41734 15.4036 9.62871 15.6776 9.86078C15.7697 9.93855 15.8601 10.0184 15.9487 10.1002C15.978 10.127 16.0081 10.1525 16.0369 10.1798C16.0375 10.1787 16.038 10.1776 16.0386 10.1765C16.0389 10.1758 16.0393 10.175 16.0397 10.1743C16.0496 10.1539 16.0593 10.1332 16.0694 10.1132C16.3444 8.37718 17.2184 7.43059 18.1216 7.43059C18.8024 7.43059 19.2973 7.83653 19.6711 8.92928L19.6749 8.941L19.6758 8.94231C19.786 9.06254 19.889 9.18927 19.984 9.32181L19.9838 9.32172C19.9858 9.32434 19.9878 9.32678 19.9898 9.3295C19.9952 9.34534 19.9997 9.36165 20.0049 9.3775L19.9908 9.3205C18.8672 5.99406 15.721 3.59912 12.0152 3.59912C7.36712 3.59912 3.59912 7.36712 3.59912 12.0152C3.59912 12.9316 3.74556 13.8137 4.01743 14.6346L4.01856 14.6298C4.11414 14.1871 4.24295 13.7521 4.40387 13.3287Z" fill="#525353"/>
<path d="M20.1167 12.1083L19.8232 12.4367V12.4366L19.8225 12.4388C19.8114 12.482 19.7977 12.5223 19.7826 12.5612C19.7786 12.5714 19.7742 12.5811 19.7699 12.591C19.7587 12.6178 19.7461 12.644 19.7321 12.6695C19.7249 12.6828 19.7178 12.6963 19.71 12.7088C19.6978 12.7283 19.6847 12.746 19.6714 12.7634C19.653 12.7875 19.6327 12.8101 19.6106 12.8309C19.6019 12.839 19.5935 12.8479 19.5843 12.8552C19.5623 12.8727 19.5385 12.8878 19.5132 12.9001C19.4711 12.9207 19.427 12.9327 19.381 12.9327C19.1143 12.9327 18.898 12.5622 18.898 12.105H17.929L17.9295 12.1058C18.1116 12.3162 18.2908 12.5291 18.4671 12.7444C18.6365 12.9514 18.8038 13.1602 18.969 13.3706L18.9934 13.4014C19.1499 13.6013 19.3051 13.8022 19.4588 14.0042L19.5036 14.0627C19.6669 14.2777 19.8291 14.4934 19.9902 14.7099C20.2738 13.8703 20.4228 12.9912 20.4316 12.105L20.1592 12.0947L20.1167 12.1083Z" fill="white"/>
<path d="M10.7366 8.22145C10.7586 8.21976 10.7805 8.21845 10.8024 8.21695C10.9533 8.20625 11.1047 8.20068 11.256 8.20026C11.7124 8.20026 12.1583 8.24911 12.592 8.33808C12.898 8.41017 13.4415 8.55951 13.8449 8.72986C14.0142 8.80135 14.1805 8.87951 14.3436 8.96414L14.3806 8.98429L14.3906 8.98992C14.4057 8.99836 14.4222 9.00745 14.4415 9.01842L14.4429 9.01917L14.5163 9.0607L14.5228 9.06445C14.6265 9.12323 14.7413 9.18914 14.7851 9.21426L14.7964 9.22073L14.8044 9.22532C14.7954 9.20695 14.785 9.18951 14.7759 9.17133L14.7704 9.16054C14.4069 8.44307 13.8472 7.8277 13.1604 7.40761C12.4908 6.99801 11.7095 6.77161 10.9238 6.77161C8.97189 6.77161 7.32236 8.08636 6.7832 9.89236C7.29367 9.45651 7.86152 9.08892 8.47267 8.80982C9.18536 8.48451 9.95505 8.28079 10.7366 8.22145Z" fill="black"/>
<path d="M19.9898 9.3295C19.9879 9.32678 19.9858 9.32434 19.9838 9.32172L19.984 9.32181C19.889 9.18927 19.7861 9.06254 19.6759 8.94231L19.6731 8.93903C19.6262 8.88804 19.5777 8.83848 19.5277 8.79044C19.5093 8.77272 19.4901 8.75725 19.4715 8.74028C19.4406 8.71225 19.41 8.68328 19.3787 8.65759V9.77406L19.8061 11.7314C19.8108 11.7466 19.8164 11.7607 19.8205 11.7765L20.1166 12.1082L20.1195 12.105H20.4293C20.4297 12.0763 20.4315 12.048 20.4315 12.0192V12.0187C20.4313 11.1211 20.2873 10.2294 20.0049 9.37741C19.9998 9.36156 19.9952 9.34534 19.9898 9.3295Z" fill="#BBBCBD"/>
<path d="M16.9722 8.81531C17.3153 8.47977 17.774 8.20809 18.266 8.20809C18.6553 8.20809 19.0293 8.36577 19.3785 8.65424L19.3786 8.65762C19.4099 8.68331 19.4406 8.71227 19.4714 8.74031C19.4901 8.75727 19.5092 8.77274 19.5277 8.79046C19.5776 8.83851 19.6261 8.88806 19.6731 8.93906L19.6758 8.94234C19.6756 8.94192 19.6753 8.94155 19.675 8.94121L19.6749 8.94112L19.671 8.92931C19.2972 7.83656 18.6941 7.12659 18.0135 7.12659C17.1102 7.12659 16.3444 8.37721 16.0693 10.1132L16.0722 10.1107C16.3068 9.64452 16.5969 9.18252 16.9722 8.81531ZM15.7517 19.4846C15.7517 19.4846 15.6301 19.3882 15.4757 19.2106C15.4039 19.1284 15.3369 19.0421 15.2752 18.9521C15.2555 18.9234 15.236 18.8936 15.2166 18.8629C15.1582 18.7705 15.1116 18.6581 15.0602 18.547C15.0008 18.4184 15.0006 18.3328 14.9665 18.213C14.9413 18.1248 14.9214 18.0351 14.9067 17.9446C14.883 17.7981 14.8735 17.6497 14.8783 17.5013C14.881 17.4157 14.8898 17.3271 14.9026 17.237C14.9154 17.1474 14.9328 17.0586 14.9548 16.9708C15.0229 16.6986 15.1405 16.4088 15.3241 16.1028L15.3708 15.998C15.4308 15.898 15.4441 15.9024 15.5011 15.8061C16.304 14.4512 16.7371 13.4266 16.5252 11.849C16.502 11.6873 16.4756 11.5262 16.4461 11.3656C16.4276 11.482 16.4081 11.5982 16.3875 11.7142C16.3795 11.7502 16.3577 11.7893 16.3495 11.8138C16.0007 12.846 15.4517 13.6053 14.6618 14.4626C14.5518 14.5815 14.4405 14.6992 14.3278 14.8156C14.1266 15.0236 13.9233 15.2295 13.718 15.4334C13.6325 15.5184 13.5453 15.6047 13.4566 15.6926C13.3751 15.7732 13.2738 15.9456 13.1529 16.0727C13.0782 16.2816 12.9934 16.5173 12.9217 16.7652C12.8893 16.7529 12.8585 16.742 12.8256 16.7292C11.2911 16.1357 10.2637 15.3426 10.2637 15.3426C10.2637 15.3426 11.0542 16.3719 12.386 17.3381C12.5084 17.4268 12.6354 17.5091 12.7665 17.5845C12.7116 18.4541 13.0952 19.289 14.8269 19.538C15.1196 19.5801 15.4195 19.5781 15.7214 19.5441C15.7184 19.5351 15.7383 19.5352 15.7367 19.5303C15.735 19.5252 15.7528 19.5119 15.7528 19.5119" fill="black"/>
<path d="M14.8255 17.2462C16.3628 17.4943 18.638 17.4536 21 16.3477C21.0569 16.3211 21.1196 16.3912 21.1765 16.3633C21.1765 16.3633 19.5622 18.012 17.6344 18.9442C17.578 18.9714 17.5224 19.0004 17.4655 19.0262C17.2792 19.1114 17.0898 19.1855 16.8995 19.254C16.5265 19.388 16.1485 19.4897 15.7732 19.5367C15.756 19.539 15.7387 19.5422 15.7215 19.5441C15.7191 19.537 15.7168 19.5299 15.7145 19.5228L15.7119 19.515C15.7119 19.515 15.5902 19.4186 15.4358 19.2409C15.3639 19.1588 15.297 19.0725 15.2354 18.9825C15.1493 18.8575 15.074 18.7255 15.0103 18.5878C14.9564 18.4715 14.9117 18.3513 14.8765 18.228C14.8104 17.9968 14.7806 17.7568 14.7883 17.5164C14.7915 17.4279 14.7996 17.3396 14.8126 17.252L14.8255 17.2462Z" fill="#9F2254"/>
<path d="M13.7236 15.496C13.929 15.2921 14.1323 15.0862 14.3335 14.8782C14.4461 14.7618 14.5574 14.6441 14.6675 14.5252C15.4573 13.6679 16.0371 12.8655 16.386 11.8334C16.3941 11.8089 16.4024 11.7766 16.4104 11.7404L16.4141 11.7236C16.4223 11.685 16.4302 11.6422 16.4382 11.5939C16.4414 11.5606 16.5457 11.4935 16.5486 11.4623C16.4612 11.0129 16.2596 10.5404 16.0396 10.1796C16.0401 10.1811 16.0406 10.1825 16.0411 10.184L16.0369 10.1799C16.008 10.1526 15.9779 10.1271 15.9486 10.1003C15.8601 10.0185 15.7697 9.93863 15.6775 9.86086C15.4036 9.62881 15.1127 9.41745 14.8074 9.22852C14.8228 9.48108 14.8326 9.73336 14.8353 9.98536C14.8356 10.0137 14.8349 10.0419 14.8349 10.0701C14.8354 10.1679 14.8356 10.2658 14.8338 10.3635C14.8313 10.4895 14.8269 10.6154 14.8205 10.7413C14.8157 10.8343 14.8098 10.9271 14.8026 11.02C14.8018 11.0296 14.8007 11.0393 14.8 11.049C14.7724 11.4005 14.7268 11.7503 14.6634 12.0972L14.5524 12.6221C14.3206 13.562 13.8497 14.4146 13.4625 15.2949C13.3598 15.5283 13.2624 15.7644 13.177 16.0049L13.1528 16.0727C13.2545 15.9655 13.3576 15.8596 13.4622 15.7552C13.551 15.6674 13.6382 15.581 13.7236 15.496Z" fill="#FCB03F"/>
<path d="M8.64365 20.5513C9.20699 20.3021 9.72833 20.1456 10.348 20.0235C10.3449 19.8893 10.3379 19.7552 10.327 19.6215C10.5917 18.9362 10.8359 18.2431 11.059 17.5432C10.6642 17.5817 10.2719 17.6423 9.88396 17.7248C9.59643 17.7858 9.31274 17.8625 9.0314 17.9473C8.80537 18.0153 8.58233 18.0935 8.36108 18.1767L9.23587 18.3886L8.53199 20.5979L8.64365 20.5513Z" fill="#525353"/>
<path d="M19.4586 14.0042C19.3049 13.8022 19.1497 13.6012 18.9932 13.4014L18.9688 13.3705C18.8016 13.1575 18.6322 12.9462 18.4606 12.7367C18.2863 12.524 18.1092 12.3137 17.9293 12.1058C17.918 12.0925 17.9066 12.0791 17.8951 12.066C17.7468 11.8957 17.5963 11.7274 17.4436 11.5612C17.3504 11.4595 17.2563 11.3588 17.1613 11.2589C17.0872 11.1816 17.0126 11.1048 16.9373 11.0287C16.8667 10.9566 16.7962 10.8842 16.7243 10.8133C16.5704 10.661 16.4136 10.5116 16.2541 10.3651C16.1834 10.3006 16.1119 10.237 16.0396 10.1743C16.0392 10.175 16.0388 10.1758 16.0386 10.1766C16.1906 10.6136 16.3642 11.0561 16.4511 11.5119C16.4737 11.6305 16.4923 11.7458 16.5075 11.8585C16.7194 13.4361 16.2139 14.4661 15.4111 15.8211C15.3523 15.9201 15.2933 16.019 15.234 16.1177C15.0504 16.4239 14.9329 16.7137 14.8647 16.9858C14.8427 17.0736 14.8253 17.1624 14.8125 17.252C16.3868 17.506 18.7542 17.5534 21.1764 16.3632C21.1764 16.3632 20.7014 15.6651 19.9867 14.7053C19.8266 14.4903 19.6655 14.2761 19.5034 14.0627C19.4886 14.0431 19.4735 14.0236 19.4586 14.0042Z" fill="#DF0067"/>
<path d="M8.44817 20.9927L9.23567 18.3885L8.36089 18.1766C8.16495 18.2502 7.9708 18.3287 7.77917 18.414L6.99927 20.9927L7.86992 21.0063L8.44817 20.9927Z" fill="#AA9678"/>
<path d="M9.00184 19.866C9.07871 19.8956 9.1569 19.9222 9.2349 19.9495C10.1284 20.263 11.0685 20.423 12.0153 20.4226C13.0925 20.4233 14.1597 20.2164 15.1586 19.8134C15.21 19.7928 15.2603 19.7701 15.3111 19.7485C15.3935 19.7135 15.4754 19.6772 15.5566 19.6396C15.6292 19.6059 15.7018 19.5724 15.7732 19.5367C15.756 19.539 15.7387 19.5422 15.7215 19.5441C15.4195 19.5781 15.1197 19.5801 14.8269 19.538C13.0952 19.289 12.7116 18.4542 12.7666 17.5845C12.6355 17.5091 12.5085 17.4269 12.386 17.3382C11.0542 16.372 10.2637 15.3427 10.2637 15.3427C10.2637 15.3427 11.2911 16.1357 12.8256 16.7293C12.8585 16.742 12.8894 16.753 12.9217 16.7653C12.9934 16.5174 13.0783 16.2817 13.1529 16.0727L13.1771 16.0049C13.2625 15.7644 13.3599 15.5283 13.4626 15.2949C13.8497 14.4146 14.3206 13.562 14.5525 12.6221L14.6635 12.0972H13.7164L13.7163 12.0973L13.7164 12.0991L13.7161 12.0993C13.7161 12.1019 13.7164 12.1044 13.7164 12.1071C13.7167 12.3324 13.6494 12.5526 13.5233 12.7393C13.4004 12.9208 13.2277 13.063 13.0259 13.1488C12.8501 13.2232 12.6583 13.2516 12.4684 13.2315C12.4593 13.2306 12.4506 13.2286 12.4416 13.2275C12.412 13.2237 12.3826 13.2196 12.354 13.2137C12.3459 13.2119 12.3382 13.2094 12.3302 13.2075C12.3008 13.2008 12.2714 13.1935 12.2429 13.1844C12.2376 13.1826 12.2326 13.1805 12.2273 13.1787C12.1965 13.1683 12.1658 13.1571 12.1362 13.1442C12.1335 13.143 12.1309 13.1416 12.1283 13.1404C12.0964 13.1263 12.0651 13.1107 12.0346 13.0937L12.0331 13.0929C11.9361 13.0381 11.8476 12.9695 11.7705 12.8891L8.52596 12.0972H4.98502C4.96984 12.1242 4.95296 12.15 4.93805 12.1771C4.91105 12.2262 4.88555 12.2759 4.85949 12.3254C4.77247 12.4897 4.69056 12.6567 4.61387 12.8262C4.54216 12.9846 4.475 13.145 4.41249 13.3072L4.40387 13.3288C4.24294 13.7522 4.11414 14.1871 4.01855 14.6299C4.57599 16.3302 5.66059 17.7912 7.07837 18.8209C7.11962 18.8508 7.16312 18.8775 7.20493 18.9067C7.44485 19.0752 7.69341 19.231 7.94959 19.3735C8.28844 19.562 8.64005 19.7265 9.00184 19.866Z" fill="white"/>
<path d="M17.4918 21.8788C17.4691 21.6538 17.4573 21.4278 17.4565 21.2016C17.4565 21.1357 17.4304 21.0726 17.3838 21.026C17.3372 20.9794 17.2741 20.9533 17.2083 20.9532H6.79151C6.72565 20.9533 6.6625 20.9794 6.61593 21.026C6.56936 21.0726 6.54319 21.1357 6.54316 21.2016C6.54316 21.4296 6.52976 21.6552 6.50791 21.8788C6.48363 22.1247 6.44611 22.369 6.39551 22.6108C6.54654 22.6907 6.69879 22.7684 6.85366 22.8421C6.95724 22.3902 7.01788 21.9294 7.03479 21.4661C7.03507 21.4607 7.03563 21.4553 7.03582 21.4499H16.9639C16.9641 21.4553 16.9647 21.4607 16.9649 21.4661C16.9819 21.9294 17.0425 22.3902 17.1461 22.8421C17.3004 22.7683 17.4532 22.6912 17.6043 22.6108C17.5537 22.369 17.5161 22.1247 17.4918 21.8788Z" fill="#8B7460"/>
</g>
<defs>
<clipPath id="clip0_77_226">
<rect width="24" height="24" fill="white"/>
</clipPath>
</defs>
</svg>
