<svg width="24" height="24" viewBox="0 0 24 24" fill="none" xmlns="http://www.w3.org/2000/svg">
<path d="M19.6031 7.80566C19.35 7.72129 19.0969 7.6416 18.8438 7.5666C18.8859 7.39316 18.9234 7.21973 18.9609 7.04629C19.5375 4.25254 19.1578 2.00723 17.8781 1.2666C16.6453 0.558789 14.6344 1.29473 12.6 3.0666C12.3984 3.24004 12.2016 3.42285 12.0141 3.60566C11.8875 3.48379 11.7562 3.36191 11.625 3.24473C9.49219 1.35098 7.35469 0.554101 6.075 1.29941C4.84688 2.01191 4.48125 4.12598 4.99687 6.76973C5.04844 7.03223 5.10469 7.29004 5.17031 7.55254C4.87031 7.63691 4.575 7.73066 4.29844 7.8291C1.79531 8.69629 0 10.065 0 11.4807C0 12.9432 1.9125 14.4104 4.51406 15.301C4.725 15.3713 4.93594 15.4416 5.15156 15.5025C5.08125 15.7838 5.02031 16.0604 4.96406 16.3463C4.47188 18.9479 4.85625 21.0104 6.08438 21.7182C7.35 22.4494 9.47812 21.6994 11.55 19.8854C11.7141 19.74 11.8781 19.59 12.0422 19.4307C12.2484 19.6322 12.4641 19.8244 12.6797 20.0119C14.6859 21.7369 16.6688 22.4354 17.8922 21.7275C19.1578 20.9963 19.5703 18.7791 19.0359 16.0791C18.9938 15.8729 18.9469 15.6619 18.8953 15.4463C19.0453 15.4041 19.1906 15.3572 19.3359 15.3104C22.0406 14.415 24 12.9666 24 11.4807C24 10.0604 22.1531 8.68223 19.6031 7.80566ZM13.2609 3.82598C15.0047 2.30723 16.6313 1.71191 17.3719 2.13848C18.1641 2.59316 18.4687 4.43066 17.9719 6.84473C17.9391 7.0041 17.9063 7.15879 17.8641 7.31348C16.8234 7.0791 15.7687 6.91035 14.7094 6.8166C14.1 5.94473 13.4344 5.11035 12.7125 4.32754C12.8953 4.1541 13.0734 3.99004 13.2609 3.82598ZM7.8375 13.9135C8.07656 14.3213 8.32031 14.7291 8.57812 15.1275C7.84687 15.0479 7.12031 14.9307 6.40313 14.776C6.60938 14.101 6.86719 13.4025 7.16719 12.69C7.38281 13.1025 7.60312 13.5104 7.8375 13.9135ZM6.41719 8.27441C7.09219 8.12441 7.80938 8.00254 8.55469 7.90879C8.30625 8.29785 8.0625 8.69629 7.83281 9.09941C7.60313 9.49785 7.37812 9.90566 7.16719 10.3182C6.87187 9.61973 6.62344 8.93535 6.41719 8.27441ZM7.70156 11.5041C8.01094 10.8572 8.34844 10.2244 8.70469 9.60098C9.06094 8.97754 9.44531 8.37285 9.84844 7.77754C10.5516 7.72598 11.2687 7.69785 12 7.69785C12.7313 7.69785 13.4531 7.72598 14.1516 7.77754C14.55 8.36816 14.9297 8.97285 15.2906 9.5916C15.6516 10.2104 15.9891 10.8432 16.3078 11.4854C15.9937 12.1322 15.6562 12.7697 15.2953 13.3979C14.9391 14.0213 14.5594 14.626 14.1609 15.226C13.4625 15.2775 12.7359 15.301 12 15.301C11.2641 15.301 10.5516 15.2775 9.8625 15.2354C9.45469 14.64 9.07031 14.0307 8.70938 13.4072C8.34844 12.7838 8.01563 12.151 7.70156 11.5041ZM16.1672 13.9041C16.4062 13.4916 16.6313 13.0744 16.8516 12.6525C17.1516 13.3322 17.4141 14.0213 17.6437 14.7291C16.9172 14.8932 16.1812 15.0197 15.4406 15.1041C15.6937 14.7104 15.9328 14.3072 16.1672 13.9041ZM16.8422 10.3182C16.6219 9.90566 16.3969 9.49316 16.1625 9.09004C15.9328 8.6916 15.6938 8.29785 15.4453 7.90879C16.2 8.00254 16.9219 8.1291 17.5969 8.28379C17.3812 8.97754 17.1281 9.65254 16.8422 10.3182ZM12.0094 5.04473C12.5016 5.5791 12.9656 6.1416 13.3969 6.72285C12.4687 6.68066 11.5359 6.68066 10.6078 6.72285C11.0672 6.11816 11.5406 5.55566 12.0094 5.04473ZM6.57187 2.17129C7.35937 1.71191 9.10781 2.36816 10.95 3.99941C11.0672 4.10254 11.1844 4.21504 11.3062 4.32754C10.5797 5.11035 9.90938 5.94473 9.29531 6.8166C8.23594 6.91035 7.18594 7.07441 6.14531 7.3041C6.08438 7.06504 6.03281 6.82129 5.98125 6.57754C5.54062 4.30879 5.83125 2.59785 6.57187 2.17129ZM5.42344 14.5275C5.22656 14.4713 5.03438 14.4104 4.84219 14.3447C3.84375 14.0307 2.70937 13.5338 1.88906 12.8822C1.41562 12.5541 1.09687 12.0479 1.00781 11.4807C1.00781 10.6229 2.48906 9.52598 4.62656 8.78066C4.89375 8.68691 5.16562 8.60254 5.4375 8.52285C5.75625 9.54004 6.14062 10.5385 6.58594 11.5041C6.13594 12.4838 5.74687 13.4963 5.42344 14.5275ZM10.8891 19.1213C10.1156 19.8291 9.22031 20.3916 8.24531 20.776C7.725 21.0244 7.125 21.0479 6.59063 20.8369C5.84531 20.4057 5.53594 18.751 5.95781 16.5244C6.00937 16.2619 6.06563 15.9994 6.13125 15.7416C7.18125 15.9666 8.24062 16.1213 9.31406 16.201C9.93281 17.0775 10.6125 17.9166 11.3391 18.7041C11.1891 18.8494 11.0391 18.99 10.8891 19.1213ZM12.0375 17.9822C11.5594 17.4666 11.0812 16.8947 10.6172 16.2807C11.0672 16.2994 11.5312 16.3088 12 16.3088C12.4828 16.3088 12.9562 16.2994 13.425 16.276C12.9937 16.8713 12.5297 17.4385 12.0375 17.9822ZM18.1641 19.3885C18.1219 19.9604 17.8406 20.4947 17.3906 20.8557C16.6453 21.2869 15.0563 20.7244 13.3406 19.2525C13.1438 19.0838 12.9469 18.901 12.7453 18.7135C13.4625 17.9213 14.1234 17.0822 14.7234 16.201C15.7969 16.1119 16.8656 15.9479 17.9203 15.7088C17.9672 15.901 18.0094 16.0932 18.0469 16.2807C18.2766 17.2932 18.3141 18.3479 18.1641 19.3885ZM19.0172 14.3494C18.8859 14.3916 18.7547 14.4338 18.6188 14.4713C18.2906 13.4494 17.8875 12.451 17.4234 11.4807C17.8734 10.5244 18.2531 9.54004 18.5719 8.53223C18.8156 8.60254 19.05 8.67754 19.275 8.75254C21.4594 9.50254 22.9922 10.6182 22.9922 11.4713C22.9922 12.39 21.3563 13.576 19.0172 14.3494ZM12 13.6463C13.1859 13.6463 14.1469 12.6854 14.1469 11.4994C14.1469 10.3135 13.1859 9.35254 12 9.35254C10.8141 9.35254 9.85312 10.3135 9.85312 11.4994C9.85312 12.6854 10.8141 13.6463 12 13.6463Z" fill="white"/>
</svg>
