<svg width="24" height="24" viewBox="0 0 24 24" fill="none" xmlns="http://www.w3.org/2000/svg">
<path d="M0.867187 8.10312L0 9.27031H4.24219L4.56562 3.14375L0.867187 8.10312ZM18.1547 2.64219L12.1266 2L18.4875 8.9L18.1547 2.64219ZM4.8375 10.7328L4.3125 9.70156H0.0421875L10.5844 21.9688L4.8375 10.7328ZM4.93125 9.27031H18.2437L14.4234 5.12187L11.5922 2.04688L4.93125 9.27031ZM18.8672 9.69687L12.5906 21.9688L23.1281 9.70156H18.8672V9.69687ZM19.05 3.73438L18.6094 3.14375L18.6516 3.95469L18.9375 9.27031H23.1703L19.05 3.73438ZM4.89844 4.88281L4.68281 8.89531L11.0484 2L5.02031 2.64219L4.89844 4.88281ZM18.3844 9.69687H4.79062L6.77812 13.5828L11.5922 23L18.3844 9.69687Z" fill="white"/>
</svg>
