<svg width="24" height="24" viewBox="0 0 24 24" fill="none" xmlns="http://www.w3.org/2000/svg">
<path d="M21.2413 5C22.4479 5 23.4249 5.97685 23.4249 7.18359V14.4619C23.4249 15.6686 22.448 16.6455 21.2413 16.6455H14.4034L15.3419 18.9434L11.2149 16.6455H2.18366C0.977081 16.6454 7.98171e-05 15.6686 6.9811e-05 14.4619V7.18359C-0.00950637 5.98652 0.96734 5.00011 2.1739 5H21.2413ZM10.0948 6.29492C9.81867 6.31397 9.60873 6.44728 9.46589 6.71387C8.87549 7.78992 8.45664 9.53254 8.20905 11.9512C7.84723 11.0371 7.5428 9.96076 7.30476 8.69434C7.19997 8.13274 6.94241 7.86597 6.52351 7.89453C6.23799 7.91362 6.00002 8.10425 5.80964 8.46582L3.7237 12.4365C3.38092 11.0559 3.0579 9.37066 2.76277 7.38086C2.6961 6.8857 2.4193 6.65722 1.93366 6.69531C1.70028 6.71203 1.518 6.78687 1.38679 6.92676L1.33405 6.99023C1.20083 7.16158 1.1437 7.38048 1.18171 7.62793C1.74353 11.1987 2.26737 13.608 2.753 14.8555C2.94345 15.3125 3.16289 15.5317 3.41999 15.5127C3.81986 15.4838 4.29589 14.931 4.85749 13.8555C5.15268 13.2461 5.60972 12.3319 6.22859 11.1133C6.74274 12.9131 7.44751 14.2653 8.33308 15.1699C8.58055 15.4269 8.83756 15.5414 9.08503 15.5225C9.30394 15.5034 9.47564 15.389 9.58991 15.1797C9.68514 14.9988 9.72322 14.7888 9.70417 14.5508C9.64705 13.6843 9.73273 12.475 9.97077 10.9229C10.2183 9.32319 10.5232 8.17096 10.8946 7.48535C10.9708 7.34254 10.9988 7.19969 10.9893 7.02832C10.9703 6.80931 10.8753 6.62819 10.6944 6.48535C10.5136 6.34263 10.3137 6.27595 10.0948 6.29492ZM13.7989 7.32324C12.8848 7.32331 12.1424 7.79977 11.5616 8.75195C11.0665 9.5612 10.8185 10.456 10.8184 11.4365C10.8184 12.1696 10.9708 12.7985 11.2755 13.3223C11.6182 13.9221 12.123 14.2839 12.7989 14.4268C12.9798 14.4648 13.1517 14.4844 13.3135 14.4844C14.2371 14.4843 14.9795 14.0079 15.5509 13.0557C16.046 12.2368 16.294 11.342 16.294 10.3613C16.294 9.61869 16.1416 8.99956 15.837 8.48535C15.4942 7.88554 14.9799 7.52374 14.3135 7.38086C14.1326 7.34277 13.9608 7.32324 13.7989 7.32324ZM19.7598 7.32324C18.8458 7.32332 18.1033 7.79979 17.5225 8.75195C17.0275 9.56119 16.7794 10.456 16.7794 11.4365C16.7794 12.1696 16.9318 12.7986 17.2364 13.3223C17.5791 13.922 18.084 14.2839 18.7598 14.4268C18.9408 14.4648 19.1126 14.4844 19.2745 14.4844C20.1981 14.4843 20.9405 14.0079 21.5118 13.0557C22.0069 12.2368 22.2549 11.342 22.255 10.3613C22.2645 9.61868 22.1026 8.99956 21.7979 8.48535C21.4552 7.88553 20.9504 7.52374 20.2745 7.38086C20.0936 7.34277 19.9217 7.32324 19.7598 7.32324ZM13.961 8.93262C14.1895 8.98024 14.3797 9.1804 14.5225 9.55176C14.6368 9.84687 14.6944 10.1419 14.6944 10.418C14.7039 10.6655 14.6746 10.904 14.627 11.123C14.4937 11.7514 14.2557 12.218 13.9034 12.5322C13.6275 12.7795 13.3708 12.8843 13.1329 12.8369C12.9043 12.7893 12.7132 12.5891 12.5704 12.2178C12.4562 11.9227 12.3995 11.6276 12.3995 11.3516C12.3995 11.1135 12.4183 10.8753 12.4659 10.6562C12.5516 10.2659 12.7137 9.88526 12.9708 9.52344C13.285 9.05684 13.6182 8.86596 13.961 8.93262ZM19.9317 8.93262C20.1602 8.98031 20.3505 9.18051 20.4932 9.55176C20.6075 9.84685 20.6651 10.1419 20.6651 10.418C20.6651 10.6655 20.6453 10.904 20.5977 11.123C20.4644 11.7514 20.2264 12.218 19.8741 12.5322C19.598 12.7797 19.3406 12.8845 19.1026 12.8369C18.8742 12.7892 18.6838 12.5889 18.5411 12.2178C18.4269 11.9227 18.3702 11.6276 18.3702 11.3516C18.3702 11.1135 18.389 10.8753 18.4366 10.6562C18.5223 10.2659 18.6844 9.88527 18.9415 9.52344C19.2557 9.05684 19.5889 8.86596 19.9317 8.93262Z" fill="white"/>
</svg>
