<svg width="24" height="24" viewBox="0 0 24 24" fill="none" xmlns="http://www.w3.org/2000/svg">
<path d="M11.625 0C5.21719 0 0 5.2125 0 11.625C0 18.0328 5.21719 23.25 11.625 23.25C18.0328 23.25 23.25 18.0328 23.25 11.625C23.25 5.2125 18.0328 0 11.625 0ZM1.17188 11.625C1.17188 10.1109 1.49531 8.67188 2.07656 7.37344L7.06406 21.0328C3.57656 19.3359 1.17188 15.7594 1.17188 11.625ZM11.625 22.0781C10.5984 22.0781 9.60938 21.9281 8.67188 21.6516L11.8078 12.5391L15.0187 21.3422C15.0422 21.3937 15.0656 21.4406 15.0938 21.4875C14.0109 21.8672 12.8438 22.0781 11.625 22.0781ZM13.0641 6.72656C13.6922 6.69375 14.2594 6.62812 14.2594 6.62812C14.8219 6.5625 14.7562 5.73281 14.1937 5.76562C14.1937 5.76562 12.5016 5.89688 11.4094 5.89688C10.3828 5.89688 8.65781 5.76562 8.65781 5.76562C8.09531 5.73281 8.02969 6.59531 8.59219 6.62812C8.59219 6.62812 9.12656 6.69375 9.68906 6.72656L11.3156 11.1891L9.02813 18.0469L5.22188 6.72656C5.85 6.69375 6.41719 6.62812 6.41719 6.62812C6.97969 6.5625 6.91406 5.73281 6.35156 5.76562C6.35156 5.76562 4.65937 5.89688 3.56719 5.89688C3.37031 5.89688 3.14062 5.89219 2.89219 5.88281C4.7625 3.04688 7.97344 1.17188 11.625 1.17188C14.3438 1.17188 16.8234 2.2125 18.6844 3.91406C18.6375 3.90937 18.5953 3.90469 18.5484 3.90469C17.5219 3.90469 16.7953 4.8 16.7953 5.76094C16.7953 6.62344 17.2922 7.35 17.8219 8.2125C18.2203 8.90625 18.6844 9.80156 18.6844 11.0953C18.6844 11.9906 18.3422 13.0266 17.8875 14.475L16.8469 17.9578L13.0641 6.72656ZM16.8797 20.6578L20.0719 11.4281C20.6672 9.9375 20.8688 8.74687 20.8688 7.68281C20.8688 7.29844 20.8453 6.94219 20.7984 6.60938C21.6141 8.1 22.0781 9.80625 22.0781 11.625C22.0781 15.4828 19.9875 18.8484 16.8797 20.6578Z" fill="white"/>
</svg>
