<svg xmlns="http://www.w3.org/2000/svg" viewBox="0 0 256 256">
  <path fill="#fff" d="M243.556 105.795c.048-.094.103-.182.143-.28a3.946 3.946 0 0 0 .163-.527c.017-.066.045-.129.058-.197a4.029 4.029 0 0 0 .077-.76c0-.011.003-.02.003-.03 0-.068-.017-.13-.02-.196a3.96 3.96 0 0 0-.054-.536c-.02-.107-.052-.207-.08-.31a3.896 3.896 0 0 0-.129-.414c-.043-.11-.096-.212-.148-.317a3.963 3.963 0 0 0-.192-.353 3.995 3.995 0 0 0-.218-.303c-.052-.067-.092-.14-.149-.206l-56-64A4 4 0 0 0 184 36H72a4 4 0 0 0-3.01 1.366l-56 64c-.057.065-.097.138-.149.206a3.995 3.995 0 0 0-.218.303 3.963 3.963 0 0 0-.192.353c-.052.105-.105.207-.148.317a3.896 3.896 0 0 0-.129.413c-.028.104-.06.204-.08.31a4.02 4.02 0 0 0-.054.536c-.003.066-.02.129-.02.196l.003.03a4.026 4.026 0 0 0 .077.761c.013.068.04.13.058.197a3.946 3.946 0 0 0 .163.527c.04.098.095.186.143.28a3.855 3.855 0 0 0 .21.388c.066.1.144.188.218.282.069.088.127.182.204.264l112 120c.026.028.058.047.085.074a4.012 4.012 0 0 0 .454.397c.039.028.074.061.114.088a3.974 3.974 0 0 0 .628.353c.054.025.11.043.165.065a3.96 3.96 0 0 0 .543.173c.067.016.132.032.2.045a3.599 3.599 0 0 0 1.47 0c.068-.013.133-.03.2-.045a3.98 3.98 0 0 0 .543-.173c.055-.022.11-.04.165-.065a3.974 3.974 0 0 0 .628-.353c.04-.027.075-.06.114-.088a4.012 4.012 0 0 0 .454-.397c.027-.027.06-.046.085-.073l112-120c.077-.083.135-.177.204-.265.074-.093.152-.182.218-.282a3.855 3.855 0 0 0 .21-.388ZM76.224 108l39.812 97.32L25.205 108Zm94.909 0L128 213.436 84.867 108Zm-84.114-8L128 46.572 168.981 100Zm92.757 8h51.02l-90.832 97.32Zm51.41-8h-52.122l-42.955-56h46.076ZM73.814 44h46.076l-42.955 56h-52.12Z"/>
</svg>