<?xml version="1.0" encoding="UTF-8"?><svg version="1.1" viewBox="0 0 512 512" xmlns="http://www.w3.org/2000/svg" xmlns:xlink="http://www.w3.org/1999/xlink"><path d="M504 96h-88v-88c0-4.42-3.58-8-8-8h-16c-4.42 0-8 3.58-8 8v88h-88c-4.42 0-8 3.58-8 8v16c0 4.42 3.58 8 8 8h88v88c0 4.42 3.58 8 8 8h16c4.42 0 8-3.58 8-8v-88h88c4.42 0 8-3.58 8-8v-16c0-4.42-3.58-8-8-8Zm-6.77 270.71l-99.72-42.87 99.72-42.87c8.35-3.6 12.19-13.23 8.58-21.52 -3.65-8.29-13.32-12.13-21.74-8.48l-225.32 96.86c-1.81.77-3.74.77-5.48 0l-208.04-89.43 193.45-83.16c8.35-3.59 12.19-13.23 8.58-21.52 -3.65-8.28-13.26-12.13-21.74-8.48l-210.71 90.57c-9 3.85-14.81 12.71-14.81 22.59 0 9.87 5.81 18.74 14.77 22.58l99.73 42.87 -99.7 42.85c-8.99 3.85-14.8 12.72-14.8 22.61 0 9.87 5.81 18.74 14.77 22.58l225.32 96.84c5.06 2.17 10.48 3.28 15.9 3.28 5.42 0 10.84-1.09 15.9-3.28l225.29-96.83c9-3.85 14.81-12.72 14.81-22.59 .01-9.89-5.8-18.76-14.76-22.6Zm-238.49 112.01c-1.81.77-3.74.77-5.48 0l-208.03-89.43 110.77-47.61 84.1 36.15c5.06 2.17 10.48 3.28 15.9 3.28 5.42 0 10.84-1.09 15.9-3.28l84.12-36.16 110.78 47.62 -208.06 89.43Z" fill="#000"></path></svg>