<svg xmlns="http://www.w3.org/2000/svg" viewBox="0 0 640 640">
  <path fill="#ffffff" d="M88 48C74.7 48 64 58.7 64 72C64 85.3 74.7 96 88 96L133.3 96C137.2 96 140.5 98.8 141.2 102.6L193.3 388.9C199.5 423.1 229.3 448 264.1 448L520 448C533.3 448 544 437.3 544 424C544 410.7 533.3 400 520 400L264.1 400C252.5 400 242.6 391.7 240.5 380.3L235.4 352L515.2 352C557.4 352 593.6 322.1 601.6 280.6L627.9 143.6C632.7 118.9 613.8 96 588.6 96L188.7 96L188.3 94C183.5 67.4 160.3 48 133.2 48L88 48zM515.1 304L226.5 304L197.4 144L578.9 144L554.4 271.6C550.8 290.4 534.3 304 515.1 304zM320 528C320 501.5 298.5 480 272 480C245.5 480 224 501.5 224 528C224 554.5 245.5 576 272 576C298.5 576 320 554.5 320 528zM544 528C544 501.5 522.5 480 496 480C469.5 480 448 501.5 448 528C448 554.5 469.5 576 496 576C522.5 576 544 554.5 544 528zM24 160C10.7 160 0 170.7 0 184C0 197.3 10.7 208 24 208L88 208C101.3 208 112 197.3 112 184C112 170.7 101.3 160 88 160L24 160zM24 256C10.7 256 0 266.7 0 280C0 293.3 10.7 304 24 304L104 304C117.3 304 128 293.3 128 280C128 266.7 117.3 256 104 256L24 256zM24 352C10.7 352 0 362.7 0 376C0 389.3 10.7 400 24 400L120 400C133.3 400 144 389.3 144 376C144 362.7 133.3 352 120 352L24 352z"/>
</svg>
