<svg viewBox="0 0 640 512" xmlns="http://www.w3.org/2000/svg">
  <path
    opacity=".4"
    d="M320 32C196.3 32 96 132.3 96 256s100.3 224 224 224 224-100.24 224-224S443.7 32 320 32zm0 352c-17.6731 0-32-14.3269-32-32 0-17.6731 14.3269-32 32-32 17.6731 0 32 14.3269 32 32 0 17.6731-14.3269 32-32 32zm38.24-238.41l-12.8 128c-.81691 8.17982-7.69949 14.4096-15.92 14.41h-19c-8.22051-.00041-15.1031-6.23018-15.92-14.41l-12.8-128v-.00001c-.87816-8.79281 5.53794-16.6327 14.3308-17.5108a15.99997 15.99997 0 011.54925-.07915h44.64c8.83656.00044 15.9996 7.16424 15.9992 16.0008a15.99997 15.99997 0 01-.0792 1.5892z"
  />
  <path
    d="M101.33 69.63l-12.2-10.41c-6.91-5.9-17.62-5.06-23.15 2.15-87.9589 114.843-87.9589 274.407 0 389.25 5.53 7.21 16.23 8.05 23.15 2.16l12.19-10.4c6.4063-5.5788 7.28759-15.2113 2-21.86-73.7836-97.2563-73.7836-231.744 0-329 5.3148-6.6495 4.43676-16.3079-1.99-21.89zm471.4-9.92c-5.58-7.18-16.29-8-23.17-2l-12.15 10.51c-6.38011 5.61132-7.20886 15.2521-1.88 21.87 75.2993 97.8059 75.2993 234.054 0 331.86-5.32886 6.61786-4.50011 16.2587 1.88 21.87l12.15 10.5c6.87 5.95 17.59 5.18 23.17-2V452.32c89.6863-115.504 89.6863-277.106-.00002-392.61zM342.32 128h-44.64c-8.83656.00044-15.9996 7.16425-15.9992 16.0008a15.99999 15.99999 0 00.0792 1.5892l12.8 128c.81691 8.17982 7.69949 14.4096 15.92 14.41h19c8.2205-.00041 15.1031-6.23018 15.92-14.41l12.8-128c.87816-8.79281-5.53793-16.6327-14.3307-17.5108a15.99996 15.99996 0 00-1.54925-.07915zM320 320c-17.6731 0-32 14.3269-32 32 0 17.6731 14.3269 32 32 32 17.6731 0 32-14.3269 32-32 0-17.6731-14.3269-32-32-32z"/>
</svg>
