<?xml version="1.0" encoding="UTF-8"?><svg version="1.1" viewBox="0 0 448 512" xmlns="http://www.w3.org/2000/svg" xmlns:xlink="http://www.w3.org/1999/xlink"><g fill="#000"><path opacity=".40" d="M48 160h352l-8 96h-336Zm330.67 256h-309.34l-11-131.76 16.56 198.42 2.18241e-07 2.61637e-06c1.38338 16.5845 15.2479 29.3404 31.89 29.34h234.44l-1.18804e-06-2.77964e-11c16.6421.000389571 30.5066-12.7555 31.89-29.34l16.54-198.42Z"></path><path d="M69.33 416h309.34l13.33-160h-336Zm362.67-352h-16l-23.16-46.31 1.75831e-06 3.51687e-06c-5.42004-10.8409-16.4997-17.6892-28.62-17.69h-280.44l-3.79351e-07 2.47553e-11c-12.1203.000790863-23.2 6.84912-28.62 17.69l-23.16 46.31h-16l-6.99382e-07 1.42109e-14c-8.83656 3.86258e-07-16 7.16344-16 16 0 0 0 0 0 0v32l1.7053e-13-2.41593e-06c-1.33428e-06 8.83656 7.16344 16 16 16h416l-6.99382e-07-2.84217e-14c8.83656 3.86258e-07 16-7.16344 16-16v-32 0c0-8.83656-7.16344-16-16-16Z"></path></g></svg>